<?xml version="1.0" standalone="no"?>
 <!DOCTYPE svg PUBLIC "-//W3C//DTD SVG 1.1//EN" 
 "http://www.w3.org/Graphics/SVG/1.1/DTD/svg11.dtd"> 
<svg xmlns="http://www.w3.org/2000/svg" version="1.1" 
    width="29.7002cm" height="21.0007cm" viewBox="0 0 116930 82680 ">
<title>SVG Picture created as power_meter.svg date 2017/01/30 11:08:11 </title>
  <desc>Picture generated by Eeschema-SVG </desc>
<g style="fill:#000000; fill-opacity:1;stroke:#000000; stroke-opacity:1;
stroke-linecap:round; stroke-linejoin:round; "
 transform="translate(0 0) scale(1 1)">
</g>
<g style="fill:#000000; fill-opacity:0.0; 
stroke:#000000; stroke-width:0; stroke-opacity:1; 
stroke-linecap:round; stroke-linejoin:round;">
</g>
<g style="fill:#840000; fill-opacity:0.0; 
stroke:#840000; stroke-width:0; stroke-opacity:1; 
stroke-linecap:round; stroke-linejoin:round;">
</g>
<g style="fill:#840000; fill-opacity:0.0; 
stroke:#840000; stroke-width:60; stroke-opacity:1; 
stroke-linecap:round; stroke-linejoin:round;">
<line x1="42000" y1="26500" x2="42000" y2="37500" />
<rect x="42000" y="26500" width="12000" height="11000" rx="0" />
<path d="M42000 28000
L40000 28000
" />
</g>
<g style="fill:#008484; fill-opacity:0.0; 
stroke:#008484; stroke-width:60; stroke-opacity:1; 
stroke-linecap:round; stroke-linejoin:round;">
<path d="M42520 28230
L42520 27730
L42690 28080
L42850 27730
L42850 28230
" />
<path d="M42970 28270
L43350 28270
" />
<path d="M43470 28230
L43470 27730
L43660 27730
L43710 27750
L43730 27770
L43750 27820
L43750 27890
L43730 27940
L43710 27960
L43660 27990
L43470 27990
" />
<path d="M44250 28180
L44230 28200
L44160 28230
L44110 28230
L44040 28200
L43990 28150
L43970 28110
L43950 28010
L43950 27940
L43970 27850
L43990 27800
L44040 27750
L44110 27730
L44160 27730
L44230 27750
L44250 27770
" />
<path d="M44710 27730
L44470 27730
L44450 27960
L44470 27940
L44520 27920
L44640 27920
L44680 27940
L44710 27960
L44730 28010
L44730 28130
L44710 28180
L44680 28200
L44640 28230
L44520 28230
L44470 28200
L44450 28180
" />
</g>
<g style="fill:#840000; fill-opacity:0.0; 
stroke:#840000; stroke-width:60; stroke-opacity:1; 
stroke-linecap:round; stroke-linejoin:round;">
<path d="M41140 27880
L40860 27880
" />
<path d="M41000 27880
L41000 27380
L40950 27450
L40900 27500
L40860 27520
" />
<path d="M42000 29000
L40000 29000
" />
</g>
<g style="fill:#008484; fill-opacity:0.0; 
stroke:#008484; stroke-width:60; stroke-opacity:1; 
stroke-linecap:round; stroke-linejoin:round;">
<path d="M42520 29230
L42520 28730
L42690 29080
L42850 28730
L42850 29230
" />
<path d="M42970 29270
L43350 29270
" />
<path d="M43470 29230
L43470 28730
L43660 28730
L43710 28750
L43730 28770
L43750 28820
L43750 28890
L43730 28940
L43710 28960
L43660 28990
L43470 28990
" />
<path d="M44250 29180
L44230 29200
L44160 29230
L44110 29230
L44040 29200
L43990 29150
L43970 29110
L43950 29010
L43950 28940
L43970 28850
L43990 28800
L44040 28750
L44110 28730
L44160 28730
L44230 28750
L44250 28770
" />
<path d="M44680 28730
L44590 28730
L44540 28750
L44520 28770
L44470 28850
L44450 28940
L44450 29130
L44470 29180
L44490 29200
L44540 29230
L44640 29230
L44680 29200
L44710 29180
L44730 29130
L44730 29010
L44710 28960
L44680 28940
L44640 28920
L44540 28920
L44490 28940
L44470 28960
L44450 29010
" />
</g>
<g style="fill:#840000; fill-opacity:0.0; 
stroke:#840000; stroke-width:60; stroke-opacity:1; 
stroke-linecap:round; stroke-linejoin:round;">
<path d="M40860 28420
L40880 28400
L40930 28380
L41050 28380
L41090 28400
L41120 28420
L41140 28470
L41140 28520
L41120 28590
L40830 28880
L41140 28880
" />
<path d="M42000 30000
L40000 30000
" />
</g>
<g style="fill:#008484; fill-opacity:0.0; 
stroke:#008484; stroke-width:60; stroke-opacity:1; 
stroke-linecap:round; stroke-linejoin:round;">
<path d="M42520 30230
L42520 29730
L42690 30080
L42850 29730
L42850 30230
" />
<path d="M42970 30270
L43350 30270
" />
<path d="M43470 30230
L43470 29730
L43660 29730
L43710 29750
L43730 29770
L43750 29820
L43750 29890
L43730 29940
L43710 29960
L43660 29990
L43470 29990
" />
<path d="M44250 30180
L44230 30200
L44160 30230
L44110 30230
L44040 30200
L43990 30150
L43970 30110
L43950 30010
L43950 29940
L43970 29850
L43990 29800
L44040 29750
L44110 29730
L44160 29730
L44230 29750
L44250 29770
" />
<path d="M44420 29730
L44750 29730
L44540 30230
" />
</g>
<g style="fill:#840000; fill-opacity:0.0; 
stroke:#840000; stroke-width:60; stroke-opacity:1; 
stroke-linecap:round; stroke-linejoin:round;">
<path d="M40830 29380
L41140 29380
L40970 29570
L41050 29570
L41090 29590
L41120 29610
L41140 29660
L41140 29780
L41120 29830
L41090 29850
L41050 29880
L40900 29880
L40860 29850
L40830 29830
" />
<path d="M42000 31000
L40000 31000
" />
</g>
<g style="fill:#008484; fill-opacity:0.0; 
stroke:#008484; stroke-width:60; stroke-opacity:1; 
stroke-linecap:round; stroke-linejoin:round;">
<path d="M42500 31200
L42570 31230
L42690 31230
L42730 31200
L42760 31180
L42780 31130
L42780 31080
L42760 31040
L42730 31010
L42690 30990
L42590 30960
L42540 30940
L42520 30920
L42500 30870
L42500 30820
L42520 30770
L42540 30750
L42590 30730
L42710 30730
L42780 30750
" />
<path d="M42950 30730
L43070 31230
L43170 30870
L43260 31230
L43380 30730
" />
<path d="M43570 31230
L43570 30730
" />
<path d="M43810 31230
L43810 30730
L43980 31080
L44140 30730
L44140 31230
" />
</g>
<g style="fill:#840000; fill-opacity:0.0; 
stroke:#840000; stroke-width:60; stroke-opacity:1; 
stroke-linecap:round; stroke-linejoin:round;">
<path d="M41090 30540
L41090 30880
" />
<path d="M40970 30350
L40860 30710
L41160 30710
" />
<path d="M42000 32000
L40000 32000
" />
</g>
<g style="fill:#008484; fill-opacity:0.0; 
stroke:#008484; stroke-width:60; stroke-opacity:1; 
stroke-linecap:round; stroke-linejoin:round;">
<path d="M42520 32230
L42520 31730
L42690 32080
L42850 31730
L42850 32230
" />
<path d="M42970 32270
L43350 32270
" />
<path d="M43470 32230
L43470 31730
L43660 31730
L43710 31750
L43730 31770
L43750 31820
L43750 31890
L43730 31940
L43710 31960
L43660 31990
L43470 31990
" />
<path d="M43970 32230
L43970 31730
L44090 31730
L44160 31750
L44210 31800
L44230 31850
L44250 31940
L44250 32010
L44230 32110
L44210 32150
L44160 32200
L44090 32230
L43970 32230
" />
<path d="M44420 31730
L44730 31730
L44560 31920
L44640 31920
L44680 31940
L44710 31960
L44730 32010
L44730 32130
L44710 32180
L44680 32200
L44640 32230
L44490 32230
L44450 32200
L44420 32180
" />
</g>
<g style="fill:#840000; fill-opacity:0.0; 
stroke:#840000; stroke-width:60; stroke-opacity:1; 
stroke-linecap:round; stroke-linejoin:round;">
<path d="M41120 31380
L40880 31380
L40860 31610
L40880 31590
L40930 31570
L41050 31570
L41090 31590
L41120 31610
L41140 31660
L41140 31780
L41120 31830
L41090 31850
L41050 31880
L40930 31880
L40880 31850
L40860 31830
" />
<path d="M42000 33000
L40000 33000
" />
</g>
<g style="fill:#008484; fill-opacity:0.0; 
stroke:#008484; stroke-width:60; stroke-opacity:1; 
stroke-linecap:round; stroke-linejoin:round;">
<path d="M42520 33230
L42520 32730
L42690 33080
L42850 32730
L42850 33230
" />
<path d="M42970 33270
L43350 33270
" />
<path d="M43470 33230
L43470 32730
L43660 32730
L43710 32750
L43730 32770
L43750 32820
L43750 32890
L43730 32940
L43710 32960
L43660 32990
L43470 32990
" />
<path d="M43970 33230
L43970 32730
L44090 32730
L44160 32750
L44210 32800
L44230 32850
L44250 32940
L44250 33010
L44230 33110
L44210 33150
L44160 33200
L44090 33230
L43970 33230
" />
<path d="M44680 32890
L44680 33230
" />
<path d="M44560 32700
L44450 33060
L44750 33060
" />
</g>
<g style="fill:#840000; fill-opacity:0.0; 
stroke:#840000; stroke-width:60; stroke-opacity:1; 
stroke-linecap:round; stroke-linejoin:round;">
<path d="M41090 32380
L41000 32380
L40950 32400
L40930 32420
L40880 32500
L40860 32590
L40860 32780
L40880 32830
L40900 32850
L40950 32880
L41050 32880
L41090 32850
L41120 32830
L41140 32780
L41140 32660
L41120 32610
L41090 32590
L41050 32570
L40950 32570
L40900 32590
L40880 32610
L40860 32660
" />
<path d="M42000 34000
L40000 34000
" />
</g>
<g style="fill:#008484; fill-opacity:0.0; 
stroke:#008484; stroke-width:60; stroke-opacity:1; 
stroke-linecap:round; stroke-linejoin:round;">
<path d="M42520 34230
L42520 33730
L42690 34080
L42850 33730
L42850 34230
" />
<path d="M42970 34270
L43350 34270
" />
<path d="M43470 34230
L43470 33730
L43750 34230
L43750 33730
" />
<path d="M44270 34230
L44110 33990
" />
<path d="M43990 34230
L43990 33730
L44180 33730
L44230 33750
L44250 33770
L44270 33820
L44270 33890
L44250 33940
L44230 33960
L44180 33990
L43990 33990
" />
<path d="M44470 34200
L44540 34230
L44660 34230
L44700 34200
L44730 34180
L44750 34130
L44750 34080
L44730 34040
L44700 34010
L44660 33990
L44560 33960
L44510 33940
L44490 33920
L44470 33870
L44470 33820
L44490 33770
L44510 33750
L44560 33730
L44680 33730
L44750 33750
" />
<path d="M44900 33730
L45180 33730
" />
<path d="M45040 34230
L45040 33730
" />
</g>
<g style="fill:#840000; fill-opacity:0.0; 
stroke:#840000; stroke-width:60; stroke-opacity:1; 
stroke-linecap:round; stroke-linejoin:round;">
<path d="M40830 33380
L41160 33380
L40950 33880
" />
<path d="M42000 35000
L40000 35000
" />
</g>
<g style="fill:#008484; fill-opacity:0.0; 
stroke:#008484; stroke-width:60; stroke-opacity:1; 
stroke-linecap:round; stroke-linejoin:round;">
<path d="M42780 34750
L42730 34730
L42660 34730
L42590 34750
L42540 34800
L42520 34850
L42500 34940
L42500 35010
L42520 35110
L42540 35150
L42590 35200
L42660 35230
L42710 35230
L42780 35200
L42800 35180
L42800 35010
L42710 35010
" />
<path d="M43020 35230
L43020 34730
L43300 35230
L43300 34730
" />
<path d="M43540 35230
L43540 34730
L43660 34730
L43730 34750
L43780 34800
L43800 34850
L43820 34940
L43820 35010
L43800 35110
L43780 35150
L43730 35200
L43660 35230
L43540 35230
" />
</g>
<g style="fill:#840000; fill-opacity:0.0; 
stroke:#840000; stroke-width:60; stroke-opacity:1; 
stroke-linecap:round; stroke-linejoin:round;">
<path d="M40950 34590
L40900 34570
L40880 34540
L40860 34500
L40860 34470
L40880 34420
L40900 34400
L40950 34380
L41050 34380
L41090 34400
L41120 34420
L41140 34470
L41140 34500
L41120 34540
L41090 34570
L41050 34590
L40950 34590
L40900 34610
L40880 34640
L40860 34690
L40860 34780
L40880 34830
L40900 34850
L40950 34880
L41050 34880
L41090 34850
L41120 34830
L41140 34780
L41140 34690
L41120 34640
L41090 34610
L41050 34590
" />
<path d="M45000 37500
L45000 39500
" />
</g>
<g style="fill:#008484; fill-opacity:0.0; 
stroke:#008484; stroke-width:60; stroke-opacity:1; 
stroke-linecap:round; stroke-linejoin:round;">
<path d="M45230 36980
L44730 36980
L45080 36810
L44730 36650
L45230 36650
" />
<path d="M45270 36530
L45270 36150
" />
<path d="M45230 36030
L44730 36030
L44730 35840
L44750 35790
L44770 35770
L44820 35750
L44890 35750
L44940 35770
L44960 35790
L44990 35840
L44990 36030
" />
<path d="M45230 35530
L44730 35530
L44730 35410
L44750 35340
L44800 35290
L44850 35270
L44940 35250
L45010 35250
L45110 35270
L45150 35290
L45200 35340
L45230 35410
L45230 35530
" />
<path d="M44770 35050
L44750 35030
L44730 34980
L44730 34860
L44750 34820
L44770 34790
L44820 34770
L44870 34770
L44940 34790
L45230 35080
L45230 34770
" />
</g>
<g style="fill:#840000; fill-opacity:0.0; 
stroke:#840000; stroke-width:60; stroke-opacity:1; 
stroke-linecap:round; stroke-linejoin:round;">
<path d="M44880 38600
L44880 38500
L44850 38450
L44830 38430
L44760 38380
L44660 38360
L44470 38360
L44420 38380
L44400 38410
L44380 38450
L44380 38550
L44400 38600
L44420 38620
L44470 38640
L44590 38640
L44640 38620
L44660 38600
L44690 38550
L44690 38450
L44660 38410
L44640 38380
L44590 38360
" />
<path d="M46000 37500
L46000 39500
" />
</g>
<g style="fill:#008484; fill-opacity:0.0; 
stroke:#008484; stroke-width:60; stroke-opacity:1; 
stroke-linecap:round; stroke-linejoin:round;">
<path d="M46230 36980
L45730 36980
L46080 36810
L45730 36650
L46230 36650
" />
<path d="M46270 36530
L46270 36150
" />
<path d="M46230 36030
L45730 36030
L45730 35840
L45750 35790
L45770 35770
L45820 35750
L45890 35750
L45940 35770
L45960 35790
L45990 35840
L45990 36030
" />
<path d="M46230 35530
L45730 35530
L45730 35410
L45750 35340
L45800 35290
L45850 35270
L45940 35250
L46010 35250
L46110 35270
L46150 35290
L46200 35340
L46230 35410
L46230 35530
" />
<path d="M45730 34790
L45730 35030
L45960 35050
L45940 35030
L45920 34980
L45920 34860
L45940 34820
L45960 34790
L46010 34770
L46130 34770
L46180 34790
L46200 34820
L46230 34860
L46230 34980
L46200 35030
L46180 35050
" />
</g>
<g style="fill:#840000; fill-opacity:0.0; 
stroke:#840000; stroke-width:60; stroke-opacity:1; 
stroke-linecap:round; stroke-linejoin:round;">
<path d="M45880 38600
L45880 38880
" />
<path d="M45880 38740
L45380 38740
L45450 38790
L45500 38840
L45520 38880
" />
<path d="M45380 38290
L45380 38240
L45400 38190
L45420 38170
L45470 38140
L45570 38120
L45690 38120
L45780 38140
L45830 38170
L45850 38190
L45880 38240
L45880 38290
L45850 38330
L45830 38360
L45780 38380
L45690 38400
L45570 38400
L45470 38380
L45420 38360
L45400 38330
L45380 38290
" />
<path d="M54000 30000
L56000 30000
" />
</g>
<g style="fill:#008484; fill-opacity:0.0; 
stroke:#008484; stroke-width:60; stroke-opacity:1; 
stroke-linecap:round; stroke-linejoin:round;">
<path d="M51290 30230
L51290 29730
L51460 30080
L51620 29730
L51620 30230
" />
<path d="M51740 30270
L52120 30270
" />
<path d="M52240 30230
L52240 29730
L52430 29730
L52480 29750
L52500 29770
L52520 29820
L52520 29890
L52500 29940
L52480 29960
L52430 29990
L52240 29990
" />
<path d="M52910 29960
L52980 29990
L53000 30010
L53020 30060
L53020 30130
L53000 30180
L52980 30200
L52930 30230
L52740 30230
L52740 29730
L52910 29730
L52950 29750
L52980 29770
L53000 29820
L53000 29870
L52980 29920
L52950 29940
L52910 29960
L52740 29960
" />
<path d="M53450 29890
L53450 30230
" />
<path d="M53330 29700
L53220 30060
L53520 30060
" />
</g>
<g style="fill:#840000; fill-opacity:0.0; 
stroke:#840000; stroke-width:60; stroke-opacity:1; 
stroke-linecap:round; stroke-linejoin:round;">
<path d="M54620 29420
L54640 29400
L54690 29380
L54810 29380
L54850 29400
L54880 29420
L54900 29470
L54900 29520
L54880 29590
L54590 29880
L54900 29880
" />
<path d="M55210 29380
L55260 29380
L55310 29400
L55330 29420
L55360 29470
L55380 29570
L55380 29690
L55360 29780
L55330 29830
L55310 29850
L55260 29880
L55210 29880
L55170 29850
L55140 29830
L55120 29780
L55100 29690
L55100 29570
L55120 29470
L55140 29420
L55170 29400
L55210 29380
" />
<path d="M47000 37500
L47000 39500
" />
</g>
<g style="fill:#008484; fill-opacity:0.0; 
stroke:#008484; stroke-width:60; stroke-opacity:1; 
stroke-linecap:round; stroke-linejoin:round;">
<path d="M47230 36980
L46730 36980
L47080 36810
L46730 36650
L47230 36650
" />
<path d="M47270 36530
L47270 36150
" />
<path d="M47230 36030
L46730 36030
L46730 35840
L46750 35790
L46770 35770
L46820 35750
L46890 35750
L46940 35770
L46960 35790
L46990 35840
L46990 36030
" />
<path d="M47230 35530
L46730 35530
L46730 35410
L46750 35340
L46800 35290
L46850 35270
L46940 35250
L47010 35250
L47110 35270
L47150 35290
L47200 35340
L47230 35410
L47230 35530
" />
<path d="M46730 34820
L46730 34910
L46750 34960
L46770 34980
L46850 35030
L46940 35050
L47130 35050
L47180 35030
L47200 35010
L47230 34960
L47230 34860
L47200 34820
L47180 34790
L47130 34770
L47010 34770
L46960 34790
L46940 34820
L46920 34860
L46920 34960
L46940 35010
L46960 35030
L47010 35050
" />
</g>
<g style="fill:#840000; fill-opacity:0.0; 
stroke:#840000; stroke-width:60; stroke-opacity:1; 
stroke-linecap:round; stroke-linejoin:round;">
<path d="M46880 38600
L46880 38880
" />
<path d="M46880 38740
L46380 38740
L46450 38790
L46500 38840
L46520 38880
" />
<path d="M46880 38120
L46880 38400
" />
<path d="M46880 38260
L46380 38260
L46450 38310
L46500 38360
L46520 38400
" />
<path d="M54000 29000
L56000 29000
" />
</g>
<g style="fill:#008484; fill-opacity:0.0; 
stroke:#008484; stroke-width:60; stroke-opacity:1; 
stroke-linecap:round; stroke-linejoin:round;">
<path d="M51290 29230
L51290 28730
L51460 29080
L51620 28730
L51620 29230
" />
<path d="M51740 29270
L52120 29270
" />
<path d="M52240 29230
L52240 28730
L52430 28730
L52480 28750
L52500 28770
L52520 28820
L52520 28890
L52500 28940
L52480 28960
L52430 28990
L52240 28990
" />
<path d="M53020 29180
L53000 29200
L52930 29230
L52880 29230
L52810 29200
L52760 29150
L52740 29110
L52720 29010
L52720 28940
L52740 28850
L52760 28800
L52810 28750
L52880 28730
L52930 28730
L53000 28750
L53020 28770
" />
<path d="M53190 28730
L53500 28730
L53330 28920
L53410 28920
L53450 28940
L53480 28960
L53500 29010
L53500 29130
L53480 29180
L53450 29200
L53410 29230
L53260 29230
L53220 29200
L53190 29180
" />
</g>
<g style="fill:#840000; fill-opacity:0.0; 
stroke:#840000; stroke-width:60; stroke-opacity:1; 
stroke-linecap:round; stroke-linejoin:round;">
<path d="M54620 28420
L54640 28400
L54690 28380
L54810 28380
L54850 28400
L54880 28420
L54900 28470
L54900 28520
L54880 28590
L54590 28880
L54900 28880
" />
<path d="M55380 28880
L55100 28880
" />
<path d="M55240 28880
L55240 28380
L55190 28450
L55140 28500
L55100 28520
" />
<path d="M48000 37500
L48000 39500
" />
</g>
<g style="fill:#008484; fill-opacity:0.0; 
stroke:#008484; stroke-width:60; stroke-opacity:1; 
stroke-linecap:round; stroke-linejoin:round;">
<path d="M48230 36980
L47730 36980
L48080 36810
L47730 36650
L48230 36650
" />
<path d="M48270 36530
L48270 36150
" />
<path d="M48230 36030
L47730 36030
L47730 35840
L47750 35790
L47770 35770
L47820 35750
L47890 35750
L47940 35770
L47960 35790
L47990 35840
L47990 36030
" />
<path d="M48080 35550
L48080 35320
" />
<path d="M48230 35600
L47730 35440
L48230 35270
" />
<path d="M48230 34840
L48230 35120
" />
<path d="M48230 34980
L47730 34980
L47800 35030
L47850 35080
L47870 35120
" />
</g>
<g style="fill:#840000; fill-opacity:0.0; 
stroke:#840000; stroke-width:60; stroke-opacity:1; 
stroke-linecap:round; stroke-linejoin:round;">
<path d="M47880 38600
L47880 38880
" />
<path d="M47880 38740
L47380 38740
L47450 38790
L47500 38840
L47520 38880
" />
<path d="M47420 38400
L47400 38380
L47380 38330
L47380 38210
L47400 38170
L47420 38140
L47470 38120
L47520 38120
L47590 38140
L47880 38430
L47880 38120
" />
<path d="M54000 28000
L56000 28000
" />
</g>
<g style="fill:#008484; fill-opacity:0.0; 
stroke:#008484; stroke-width:60; stroke-opacity:1; 
stroke-linecap:round; stroke-linejoin:round;">
<path d="M51290 28230
L51290 27730
L51460 28080
L51620 27730
L51620 28230
" />
<path d="M51740 28270
L52120 28270
" />
<path d="M52240 28230
L52240 27730
L52430 27730
L52480 27750
L52500 27770
L52520 27820
L52520 27890
L52500 27940
L52480 27960
L52430 27990
L52240 27990
" />
<path d="M53020 28180
L53000 28200
L52930 28230
L52880 28230
L52810 28200
L52760 28150
L52740 28110
L52720 28010
L52720 27940
L52740 27850
L52760 27800
L52810 27750
L52880 27730
L52930 27730
L53000 27750
L53020 27770
" />
<path d="M53450 27890
L53450 28230
" />
<path d="M53330 27700
L53220 28060
L53520 28060
" />
</g>
<g style="fill:#840000; fill-opacity:0.0; 
stroke:#840000; stroke-width:60; stroke-opacity:1; 
stroke-linecap:round; stroke-linejoin:round;">
<path d="M54620 27420
L54640 27400
L54690 27380
L54810 27380
L54850 27400
L54880 27420
L54900 27470
L54900 27520
L54880 27590
L54590 27880
L54900 27880
" />
<path d="M55100 27420
L55120 27400
L55170 27380
L55290 27380
L55330 27400
L55360 27420
L55380 27470
L55380 27520
L55360 27590
L55070 27880
L55380 27880
" />
<path d="M49000 37500
L49000 39500
" />
</g>
<g style="fill:#008484; fill-opacity:0.0; 
stroke:#008484; stroke-width:60; stroke-opacity:1; 
stroke-linecap:round; stroke-linejoin:round;">
<path d="M49230 36980
L48730 36980
L49080 36810
L48730 36650
L49230 36650
" />
<path d="M49270 36530
L49270 36150
" />
<path d="M49230 36030
L48730 36030
L48730 35840
L48750 35790
L48770 35770
L48820 35750
L48890 35750
L48940 35770
L48960 35790
L48990 35840
L48990 36030
" />
<path d="M49080 35550
L49080 35320
" />
<path d="M49230 35600
L48730 35440
L49230 35270
" />
<path d="M48770 35120
L48750 35100
L48730 35050
L48730 34930
L48750 34890
L48770 34860
L48820 34840
L48870 34840
L48940 34860
L49230 35150
L49230 34840
" />
</g>
<g style="fill:#840000; fill-opacity:0.0; 
stroke:#840000; stroke-width:60; stroke-opacity:1; 
stroke-linecap:round; stroke-linejoin:round;">
<path d="M48880 38600
L48880 38880
" />
<path d="M48880 38740
L48380 38740
L48450 38790
L48500 38840
L48520 38880
" />
<path d="M48380 38430
L48380 38120
L48570 38290
L48570 38210
L48590 38170
L48610 38140
L48660 38120
L48780 38120
L48830 38140
L48850 38170
L48880 38210
L48880 38360
L48850 38400
L48830 38430
" />
<path d="M50000 37500
L50000 39500
" />
</g>
<g style="fill:#008484; fill-opacity:0.0; 
stroke:#008484; stroke-width:60; stroke-opacity:1; 
stroke-linecap:round; stroke-linejoin:round;">
<path d="M49960 36980
L49960 36810
" />
<path d="M50230 36740
L50230 36980
L49730 36980
L49730 36740
" />
<path d="M50270 36650
L50270 36270
" />
<path d="M49750 35890
L49730 35940
L49730 36010
L49750 36080
L49800 36130
L49850 36150
L49940 36170
L50010 36170
L50110 36150
L50150 36130
L50200 36080
L50230 36010
L50230 35960
L50200 35890
L50180 35870
L50010 35870
L50010 35960
" />
<path d="M50230 35650
L49730 35650
L49730 35460
L49750 35410
L49770 35390
L49820 35370
L49890 35370
L49940 35390
L49960 35410
L49990 35460
L49990 35650
" />
<path d="M50230 35150
L49730 35150
" />
<path d="M49730 34820
L49730 34720
L49750 34670
L49800 34630
L49890 34600
L50060 34600
L50150 34630
L50200 34670
L50230 34720
L50230 34820
L50200 34860
L50150 34910
L50060 34930
L49890 34930
L49800 34910
L49750 34860
L49730 34820
" />
<path d="M49730 34300
L49730 34250
L49750 34200
L49770 34180
L49820 34150
L49920 34130
L50040 34130
L50130 34150
L50180 34180
L50200 34200
L50230 34250
L50230 34300
L50200 34340
L50180 34370
L50130 34390
L50040 34410
L49920 34410
L49820 34390
L49770 34370
L49750 34340
L49730 34300
" />
</g>
<g style="fill:#840000; fill-opacity:0.0; 
stroke:#840000; stroke-width:60; stroke-opacity:1; 
stroke-linecap:round; stroke-linejoin:round;">
<path d="M49880 38600
L49880 38880
" />
<path d="M49880 38740
L49380 38740
L49450 38790
L49500 38840
L49520 38880
" />
<path d="M49540 38170
L49880 38170
" />
<path d="M49350 38290
L49710 38400
L49710 38100
" />
<path d="M54000 35000
L56000 35000
" />
</g>
<g style="fill:#008484; fill-opacity:0.0; 
stroke:#008484; stroke-width:60; stroke-opacity:1; 
stroke-linecap:round; stroke-linejoin:round;">
<path d="M50910 35230
L50910 34730
L51080 35080
L51240 34730
L51240 35230
" />
<path d="M51360 35270
L51740 35270
" />
<path d="M51790 34730
L51950 35230
L52120 34730
" />
<path d="M52570 35180
L52550 35200
L52480 35230
L52430 35230
L52360 35200
L52310 35150
L52290 35110
L52270 35010
L52270 34940
L52290 34850
L52310 34800
L52360 34750
L52430 34730
L52480 34730
L52550 34750
L52570 34770
" />
<path d="M52770 35080
L53000 35080
" />
<path d="M52720 35230
L52880 34730
L53050 35230
" />
<path d="M53220 35230
L53220 34730
L53410 34730
L53460 34750
L53480 34770
L53500 34820
L53500 34890
L53480 34940
L53460 34960
L53410 34990
L53220 34990
" />
</g>
<g style="fill:#840000; fill-opacity:0.0; 
stroke:#840000; stroke-width:60; stroke-opacity:1; 
stroke-linecap:round; stroke-linejoin:round;">
<path d="M54900 34880
L54620 34880
" />
<path d="M54760 34880
L54760 34380
L54710 34450
L54660 34500
L54620 34520
" />
<path d="M55360 34380
L55120 34380
L55100 34610
L55120 34590
L55170 34570
L55290 34570
L55330 34590
L55360 34610
L55380 34660
L55380 34780
L55360 34830
L55330 34850
L55290 34880
L55170 34880
L55120 34850
L55100 34830
" />
<path d="M54000 34000
L56000 34000
" />
</g>
<g style="fill:#008484; fill-opacity:0.0; 
stroke:#008484; stroke-width:60; stroke-opacity:1; 
stroke-linecap:round; stroke-linejoin:round;">
<path d="M51340 34230
L51340 33730
L51510 34080
L51670 33730
L51670 34230
" />
<path d="M51790 34270
L52170 34270
" />
<path d="M52220 33730
L52380 34230
L52550 33730
" />
<path d="M53000 34180
L52980 34200
L52910 34230
L52860 34230
L52790 34200
L52740 34150
L52720 34110
L52700 34010
L52700 33940
L52720 33850
L52740 33800
L52790 33750
L52860 33730
L52910 33730
L52980 33750
L53000 33770
" />
<path d="M53500 34180
L53480 34200
L53410 34230
L53360 34230
L53290 34200
L53240 34150
L53220 34110
L53200 34010
L53200 33940
L53220 33850
L53240 33800
L53290 33750
L53360 33730
L53410 33730
L53480 33750
L53500 33770
" />
</g>
<g style="fill:#840000; fill-opacity:0.0; 
stroke:#840000; stroke-width:60; stroke-opacity:1; 
stroke-linecap:round; stroke-linejoin:round;">
<path d="M54900 33880
L54620 33880
" />
<path d="M54760 33880
L54760 33380
L54710 33450
L54660 33500
L54620 33520
" />
<path d="M55330 33380
L55240 33380
L55190 33400
L55170 33420
L55120 33500
L55100 33590
L55100 33780
L55120 33830
L55140 33850
L55190 33880
L55290 33880
L55330 33850
L55360 33830
L55380 33780
L55380 33660
L55360 33610
L55330 33590
L55290 33570
L55190 33570
L55140 33590
L55120 33610
L55100 33660
" />
<path d="M54000 33000
L56000 33000
" />
</g>
<g style="fill:#008484; fill-opacity:0.0; 
stroke:#008484; stroke-width:60; stroke-opacity:1; 
stroke-linecap:round; stroke-linejoin:round;">
<path d="M51460 32960
L51630 32960
" />
<path d="M51700 33230
L51460 33230
L51460 32730
L51700 32730
" />
<path d="M51790 33270
L52170 33270
" />
<path d="M52220 32730
L52380 33230
L52550 32730
" />
<path d="M53000 33180
L52980 33200
L52910 33230
L52860 33230
L52790 33200
L52740 33150
L52720 33110
L52700 33010
L52700 32940
L52720 32850
L52740 32800
L52790 32750
L52860 32730
L52910 32730
L52980 32750
L53000 32770
" />
<path d="M53500 33180
L53480 33200
L53410 33230
L53360 33230
L53290 33200
L53240 33150
L53220 33110
L53200 33010
L53200 32940
L53220 32850
L53240 32800
L53290 32750
L53360 32730
L53410 32730
L53480 32750
L53500 32770
" />
</g>
<g style="fill:#840000; fill-opacity:0.0; 
stroke:#840000; stroke-width:60; stroke-opacity:1; 
stroke-linecap:round; stroke-linejoin:round;">
<path d="M54900 32880
L54620 32880
" />
<path d="M54760 32880
L54760 32380
L54710 32450
L54660 32500
L54620 32520
" />
<path d="M55070 32380
L55400 32380
L55190 32880
" />
<path d="M54000 32000
L56000 32000
" />
</g>
<g style="fill:#008484; fill-opacity:0.0; 
stroke:#008484; stroke-width:60; stroke-opacity:1; 
stroke-linecap:round; stroke-linejoin:round;">
<path d="M51360 32230
L51360 31730
L51530 32080
L51690 31730
L51690 32230
" />
<path d="M51810 32270
L52190 32270
" />
<path d="M52310 32230
L52310 31730
L52500 31730
L52550 31750
L52570 31770
L52590 31820
L52590 31890
L52570 31940
L52550 31960
L52500 31990
L52310 31990
" />
<path d="M52790 32080
L53020 32080
" />
<path d="M52740 32230
L52900 31730
L53070 32230
" />
<path d="M53190 31730
L53500 31730
L53330 31920
L53410 31920
L53450 31940
L53480 31960
L53500 32010
L53500 32130
L53480 32180
L53450 32200
L53410 32230
L53260 32230
L53220 32200
L53190 32180
" />
</g>
<g style="fill:#840000; fill-opacity:0.0; 
stroke:#840000; stroke-width:60; stroke-opacity:1; 
stroke-linecap:round; stroke-linejoin:round;">
<path d="M54900 31880
L54620 31880
" />
<path d="M54760 31880
L54760 31380
L54710 31450
L54660 31500
L54620 31520
" />
<path d="M55190 31590
L55140 31570
L55120 31540
L55100 31500
L55100 31470
L55120 31420
L55140 31400
L55190 31380
L55290 31380
L55330 31400
L55360 31420
L55380 31470
L55380 31500
L55360 31540
L55330 31570
L55290 31590
L55190 31590
L55140 31610
L55120 31640
L55100 31690
L55100 31780
L55120 31830
L55140 31850
L55190 31880
L55290 31880
L55330 31850
L55360 31830
L55380 31780
L55380 31690
L55360 31640
L55330 31610
L55290 31590
" />
<path d="M54000 31000
L56000 31000
" />
</g>
<g style="fill:#008484; fill-opacity:0.0; 
stroke:#008484; stroke-width:60; stroke-opacity:1; 
stroke-linecap:round; stroke-linejoin:round;">
<path d="M51290 31230
L51290 30730
L51460 31080
L51620 30730
L51620 31230
" />
<path d="M51740 31270
L52120 31270
" />
<path d="M52240 31230
L52240 30730
L52430 30730
L52480 30750
L52500 30770
L52520 30820
L52520 30890
L52500 30940
L52480 30960
L52430 30990
L52240 30990
" />
<path d="M52910 30960
L52980 30990
L53000 31010
L53020 31060
L53020 31130
L53000 31180
L52980 31200
L52930 31230
L52740 31230
L52740 30730
L52910 30730
L52950 30750
L52980 30770
L53000 30820
L53000 30870
L52980 30920
L52950 30940
L52910 30960
L52740 30960
" />
<path d="M53480 30730
L53240 30730
L53220 30960
L53240 30940
L53290 30920
L53410 30920
L53450 30940
L53480 30960
L53500 31010
L53500 31130
L53480 31180
L53450 31200
L53410 31230
L53290 31230
L53240 31200
L53220 31180
" />
</g>
<g style="fill:#840000; fill-opacity:0.0; 
stroke:#840000; stroke-width:60; stroke-opacity:1; 
stroke-linecap:round; stroke-linejoin:round;">
<path d="M54900 30880
L54620 30880
" />
<path d="M54760 30880
L54760 30380
L54710 30450
L54660 30500
L54620 30520
" />
<path d="M55140 30880
L55240 30880
L55290 30850
L55310 30830
L55360 30760
L55380 30660
L55380 30470
L55360 30420
L55330 30400
L55290 30380
L55190 30380
L55140 30400
L55120 30420
L55100 30470
L55100 30590
L55120 30640
L55140 30660
L55190 30690
L55290 30690
L55330 30660
L55360 30640
L55380 30590
" />
</g>
<g style="fill:#008484; fill-opacity:0.0; 
stroke:#008484; stroke-width:60; stroke-opacity:1; 
stroke-linecap:round; stroke-linejoin:round;">
<path d="M47040 40710
L47040 41200
L47070 41250
L47100 41280
L47160 41310
L47270 41310
L47330 41280
L47360 41250
L47390 41200
L47390 40710
" />
<path d="M47990 41310
L47640 41310
" />
<path d="M47820 41310
L47820 40710
L47760 40800
L47700 40850
L47640 40880
" />
<path d="M46160 25780
L46100 25810
L45990 25810
L45930 25780
L45900 25730
L45900 25500
L45930 25440
L45990 25410
L46100 25410
L46160 25440
L46190 25500
L46190 25550
L45900 25610
" />
<path d="M46410 25780
L46470 25810
L46590 25810
L46640 25780
L46670 25730
L46670 25700
L46640 25640
L46590 25610
L46500 25610
L46440 25580
L46410 25530
L46410 25500
L46440 25440
L46500 25410
L46590 25410
L46640 25440
" />
<path d="M46930 25410
L46930 26010
" />
<path d="M46930 25440
L46990 25410
L47100 25410
L47160 25440
L47190 25470
L47220 25530
L47220 25700
L47190 25750
L47160 25780
L47100 25810
L46990 25810
L46930 25780
" />
<path d="M47470 25580
L47930 25580
" />
<path d="M48530 25810
L48180 25810
" />
<path d="M48360 25810
L48360 25210
L48300 25300
L48240 25350
L48180 25380
" />
<path d="M49040 25410
L49040 25810
" />
<path d="M48900 25180
L48750 25610
L49130 25610
" />
</g>
<g style="fill:#008484; fill-opacity:0.0; 
stroke:#008484; stroke-width:0; stroke-opacity:1; 
stroke-linecap:round; stroke-linejoin:round;">
</g>
<g style="fill:#840000; fill-opacity:0.0; 
stroke:#840000; stroke-width:0; stroke-opacity:1; 
stroke-linecap:round; stroke-linejoin:round;">
</g>
<g style="fill:#840000; fill-opacity:0.0; 
stroke:#840000; stroke-width:60; stroke-opacity:1; 
stroke-linecap:round; stroke-linejoin:round;">
<polyline fill="none;"
points="38500,38000
38500,38500
39000,38500
38500,39000
38000,38500
38500,38500
" /> 
</g>
<g style="fill:#008484; fill-opacity:0.0; 
stroke:#008484; stroke-width:60; stroke-opacity:1; 
stroke-linecap:round; stroke-linejoin:round;">
<path d="M38120 39280
L38070 39260
L38000 39260
L37930 39280
L37880 39330
L37860 39380
L37840 39470
L37840 39540
L37860 39640
L37880 39680
L37930 39730
L38000 39760
L38050 39760
L38120 39730
L38140 39710
L38140 39540
L38050 39540
" />
<path d="M38360 39760
L38360 39260
L38640 39760
L38640 39260
" />
<path d="M38880 39760
L38880 39260
L39000 39260
L39070 39280
L39120 39330
L39140 39380
L39160 39470
L39160 39540
L39140 39640
L39120 39680
L39070 39730
L39000 39760
L38880 39760
" />
</g>
<g style="fill:#008484; fill-opacity:0.0; 
stroke:#008484; stroke-width:0; stroke-opacity:1; 
stroke-linecap:round; stroke-linejoin:round;">
</g>
<g style="fill:#840000; fill-opacity:0.0; 
stroke:#840000; stroke-width:0; stroke-opacity:1; 
stroke-linecap:round; stroke-linejoin:round;">
</g>
<g style="fill:#840000; fill-opacity:0.0; 
stroke:#840000; stroke-width:60; stroke-opacity:1; 
stroke-linecap:round; stroke-linejoin:round;">
<rect x="44950" y="42500" width="100" height="600" rx="0" />
<rect x="45950" y="42500" width="100" height="600" rx="0" />
<rect x="46950" y="42500" width="100" height="600" rx="0" />
<rect x="44500" y="42500" width="3000" height="1000" rx="0" />
<path d="M47000 42500
L47000 41000
" />
<path d="M46880 41610
L46880 41890
" />
<path d="M46880 41750
L46380 41750
L46450 41800
L46500 41850
L46520 41890
" />
<path d="M46000 42500
L46000 41000
" />
<path d="M45420 41890
L45400 41870
L45380 41820
L45380 41700
L45400 41660
L45420 41630
L45470 41610
L45520 41610
L45590 41630
L45880 41920
L45880 41610
" />
<path d="M45000 42500
L45000 41000
" />
<path d="M44380 41920
L44380 41610
L44570 41780
L44570 41700
L44590 41660
L44610 41630
L44660 41610
L44780 41610
L44830 41630
L44850 41660
L44880 41700
L44880 41850
L44850 41890
L44830 41920
" />
</g>
<g style="fill:#008484; fill-opacity:0.0; 
stroke:#008484; stroke-width:60; stroke-opacity:1; 
stroke-linecap:round; stroke-linejoin:round;">
<path d="M48190 43370
L47690 43370
L47690 43180
L47710 43130
L47730 43110
L47780 43090
L47850 43090
L47900 43110
L47920 43130
L47950 43180
L47950 43370
" />
<path d="M47690 42660
L47690 42750
L47710 42800
L47730 42820
L47810 42870
L47900 42890
L48090 42890
L48140 42870
L48160 42850
L48190 42800
L48190 42700
L48160 42660
L48140 42630
L48090 42610
L47970 42610
L47920 42630
L47900 42660
L47880 42700
L47880 42800
L47900 42850
L47920 42870
L47970 42890
" />
<path d="M44190 44230
L44260 44260
L44380 44260
L44420 44230
L44450 44210
L44470 44160
L44470 44110
L44450 44070
L44420 44040
L44380 44020
L44280 43990
L44230 43970
L44210 43950
L44190 43900
L44190 43850
L44210 43800
L44230 43780
L44280 43760
L44400 43760
L44470 43780
" />
<path d="M44880 44230
L44830 44260
L44740 44260
L44690 44230
L44670 44180
L44670 43990
L44690 43950
L44740 43920
L44830 43920
L44880 43950
L44900 43990
L44900 44040
L44670 44090
" />
<path d="M45120 44260
L45120 43920
" />
<path d="M45120 44020
L45140 43970
L45170 43950
L45210 43920
L45260 43920
" />
<path d="M45430 44260
L45430 43920
" />
<path d="M45430 43760
L45410 43780
L45430 43800
L45450 43780
L45430 43760
L45430 43800
" />
<path d="M45880 44260
L45880 43990
L45860 43950
L45810 43920
L45720 43920
L45670 43950
" />
<path d="M45880 44230
L45840 44260
L45720 44260
L45670 44230
L45650 44180
L45650 44140
L45670 44090
L45720 44070
L45840 44070
L45880 44040
" />
<path d="M46190 44260
L46140 44230
L46120 44180
L46120 43760
" />
<path d="M46760 44260
L46760 43760
" />
<path d="M47360 43730
L46930 44380
" />
<path d="M47610 43760
L47710 43760
L47760 43780
L47800 43830
L47830 43920
L47830 44090
L47800 44180
L47760 44230
L47710 44260
L47610 44260
L47570 44230
L47520 44180
L47500 44090
L47500 43920
L47520 43830
L47570 43780
L47610 43760
" />
</g>
<g style="fill:#008484; fill-opacity:0.0; 
stroke:#008484; stroke-width:0; stroke-opacity:1; 
stroke-linecap:round; stroke-linejoin:round;">
</g>
<g style="fill:#840000; fill-opacity:0.0; 
stroke:#840000; stroke-width:0; stroke-opacity:1; 
stroke-linecap:round; stroke-linejoin:round;">
</g>
<g style="fill:#840000; fill-opacity:0.0; 
stroke:#840000; stroke-width:60; stroke-opacity:1; 
stroke-linecap:round; stroke-linejoin:round;">
<polyline fill="none;"
points="41500,43500
41500,44000
42000,44000
41500,44500
41000,44000
41500,44000
" /> 
</g>
<g style="fill:#008484; fill-opacity:0.0; 
stroke:#008484; stroke-width:60; stroke-opacity:1; 
stroke-linecap:round; stroke-linejoin:round;">
<path d="M41120 44780
L41070 44760
L41000 44760
L40930 44780
L40880 44830
L40860 44880
L40840 44970
L40840 45040
L40860 45140
L40880 45180
L40930 45230
L41000 45260
L41050 45260
L41120 45230
L41140 45210
L41140 45040
L41050 45040
" />
<path d="M41360 45260
L41360 44760
L41640 45260
L41640 44760
" />
<path d="M41880 45260
L41880 44760
L42000 44760
L42070 44780
L42120 44830
L42140 44880
L42160 44970
L42160 45040
L42140 45140
L42120 45180
L42070 45230
L42000 45260
L41880 45260
" />
</g>
<g style="fill:#008400; fill-opacity:0.0; 
stroke:#008400; stroke-width:60; stroke-opacity:1; 
stroke-linecap:round; stroke-linejoin:round;">
<path d="M45000 41000
L41500 41000
" />
<path d="M41500 41000
L41500 43500
" />
<path d="M40000 35000
L38500 35000
" />
<path d="M38500 35000
L38500 38000
" />
</g>
<g style="fill:#008400; fill-opacity:0.0; 
stroke:#008400; stroke-width:0; stroke-opacity:1; 
stroke-linecap:round; stroke-linejoin:round;">
</g>
<g style="fill:#840000; fill-opacity:0.0; 
stroke:#840000; stroke-width:0; stroke-opacity:1; 
stroke-linecap:round; stroke-linejoin:round;">
</g>
<g style="fill:#840000; fill-opacity:0.0; 
stroke:#840000; stroke-width:60; stroke-opacity:1; 
stroke-linecap:round; stroke-linejoin:round;">
<rect x="32400" y="30950" width="600" height="100" rx="0" />
<rect x="32400" y="31950" width="600" height="100" rx="0" />
<rect x="32400" y="32950" width="600" height="100" rx="0" />
<rect x="32000" y="30500" width="1000" height="3000" rx="0" />
<path d="M33000 33000
L34500 33000
" />
<path d="M33890 32880
L33610 32880
" />
<path d="M33750 32880
L33750 32380
L33700 32450
L33650 32500
L33610 32520
" />
<path d="M33000 32000
L34500 32000
" />
<path d="M33610 31420
L33630 31400
L33680 31380
L33800 31380
L33840 31400
L33870 31420
L33890 31470
L33890 31520
L33870 31590
L33580 31880
L33890 31880
" />
<path d="M33000 31000
L34500 31000
" />
<path d="M33580 30380
L33890 30380
L33720 30570
L33800 30570
L33840 30590
L33870 30610
L33890 30660
L33890 30780
L33870 30830
L33840 30850
L33800 30880
L33650 30880
L33610 30850
L33580 30830
" />
</g>
<g style="fill:#008484; fill-opacity:0.0; 
stroke:#008484; stroke-width:60; stroke-opacity:1; 
stroke-linecap:round; stroke-linejoin:round;">
<path d="M32130 34190
L32130 33690
L32320 33690
L32370 33710
L32390 33730
L32410 33780
L32410 33850
L32390 33900
L32370 33920
L32320 33950
L32130 33950
" />
<path d="M32610 33730
L32630 33710
L32680 33690
L32800 33690
L32840 33710
L32870 33730
L32890 33780
L32890 33830
L32870 33900
L32580 34190
L32890 34190
" />
<path d="M31660 33870
L31690 33800
L31690 33680
L31660 33640
L31640 33610
L31590 33590
L31540 33590
L31500 33610
L31470 33640
L31450 33680
L31420 33780
L31400 33830
L31380 33850
L31330 33870
L31280 33870
L31230 33850
L31210 33830
L31190 33780
L31190 33660
L31210 33590
" />
<path d="M31190 33420
L31690 33300
L31330 33200
L31690 33110
L31190 32990
" />
<path d="M31690 32800
L31190 32800
" />
<path d="M31690 32560
L31190 32560
L31540 32390
L31190 32230
L31690 32230
" />
<path d="M31690 31610
L31190 31610
L31190 31420
L31210 31370
L31230 31350
L31280 31330
L31350 31330
L31400 31350
L31420 31370
L31450 31420
L31450 31610
" />
<path d="M31690 31110
L31350 31110
" />
<path d="M31450 31110
L31400 31090
L31380 31060
L31350 31020
L31350 30970
" />
<path d="M31690 30730
L31660 30780
L31640 30800
L31590 30820
L31450 30820
L31400 30800
L31380 30780
L31350 30730
L31350 30660
L31380 30610
L31400 30590
L31450 30560
L31590 30560
L31640 30590
L31660 30610
L31690 30660
L31690 30730
" />
<path d="M31350 30140
L31760 30140
L31810 30160
L31830 30180
L31850 30230
L31850 30300
L31830 30350
" />
<path d="M31660 30140
L31690 30180
L31690 30280
L31660 30330
L31640 30350
L31590 30370
L31450 30370
L31400 30350
L31380 30330
L31350 30280
L31350 30180
L31380 30140
" />
</g>
<g style="fill:#008484; fill-opacity:0.0; 
stroke:#008484; stroke-width:0; stroke-opacity:1; 
stroke-linecap:round; stroke-linejoin:round;">
</g>
<g style="fill:#840000; fill-opacity:0.0; 
stroke:#840000; stroke-width:0; stroke-opacity:1; 
stroke-linecap:round; stroke-linejoin:round;">
</g>
<g style="fill:#840000; fill-opacity:0.0; 
stroke:#840000; stroke-width:60; stroke-opacity:1; 
stroke-linecap:round; stroke-linejoin:round;">
<polyline fill="none;"
points="35500,35500
35500,36000
36000,36000
35500,36500
35000,36000
35500,36000
" /> 
</g>
<g style="fill:#008484; fill-opacity:0.0; 
stroke:#008484; stroke-width:60; stroke-opacity:1; 
stroke-linecap:round; stroke-linejoin:round;">
<path d="M35120 36780
L35070 36760
L35000 36760
L34930 36780
L34880 36830
L34860 36880
L34840 36970
L34840 37040
L34860 37140
L34880 37180
L34930 37230
L35000 37260
L35050 37260
L35120 37230
L35140 37210
L35140 37040
L35050 37040
" />
<path d="M35360 37260
L35360 36760
L35640 37260
L35640 36760
" />
<path d="M35880 37260
L35880 36760
L36000 36760
L36070 36780
L36120 36830
L36140 36880
L36160 36970
L36160 37040
L36140 37140
L36120 37180
L36070 37230
L36000 37260
L35880 37260
" />
</g>
<g style="fill:#008400; fill-opacity:0.0; 
stroke:#008400; stroke-width:60; stroke-opacity:1; 
stroke-linecap:round; stroke-linejoin:round;">
<path d="M34500 33000
L35500 33000
" />
<path d="M35500 33000
L35500 35500
" />
<path d="M40000 34000
L36500 34000
" />
<path d="M36500 32000
L34500 32000
" />
<path d="M34500 31000
L40000 31000
" />
</g>
<g style="fill:#008400; fill-opacity:0.0; 
stroke:#008400; stroke-width:0; stroke-opacity:1; 
stroke-linecap:round; stroke-linejoin:round;">
</g>
<g style="fill:#840000; fill-opacity:0.0; 
stroke:#840000; stroke-width:0; stroke-opacity:1; 
stroke-linecap:round; stroke-linejoin:round;">
</g>
<g style="fill:#840000; fill-opacity:0.0; 
stroke:#840000; stroke-width:60; stroke-opacity:1; 
stroke-linecap:round; stroke-linejoin:round;">
<rect x="58500" y="42950" width="600" height="100" rx="0" />
<rect x="58500" y="41950" width="600" height="100" rx="0" />
<rect x="58500" y="40950" width="600" height="100" rx="0" />
<rect x="58500" y="40500" width="1000" height="3000" rx="0" />
<path d="M58500 41000
L57000 41000
" />
<path d="M57890 40880
L57610 40880
" />
<path d="M57750 40880
L57750 40380
L57700 40450
L57650 40500
L57610 40520
" />
<path d="M58500 42000
L57000 42000
" />
<path d="M57610 41420
L57630 41400
L57680 41380
L57800 41380
L57840 41400
L57870 41420
L57890 41470
L57890 41520
L57870 41590
L57580 41880
L57890 41880
" />
<path d="M58500 43000
L57000 43000
" />
<path d="M57580 42380
L57890 42380
L57720 42570
L57800 42570
L57840 42590
L57870 42610
L57890 42660
L57890 42780
L57870 42830
L57840 42850
L57800 42880
L57650 42880
L57610 42850
L57580 42830
" />
</g>
<g style="fill:#008484; fill-opacity:0.0; 
stroke:#008484; stroke-width:60; stroke-opacity:1; 
stroke-linecap:round; stroke-linejoin:round;">
<path d="M58630 40260
L58630 39760
L58820 39760
L58870 39780
L58890 39800
L58910 39850
L58910 39920
L58890 39970
L58870 39990
L58820 40020
L58630 40020
" />
<path d="M59370 39760
L59130 39760
L59110 39990
L59130 39970
L59180 39950
L59300 39950
L59340 39970
L59370 39990
L59390 40040
L59390 40160
L59370 40210
L59340 40230
L59300 40260
L59180 40260
L59130 40230
L59110 40210
" />
<path d="M59990 45050
L60020 44980
L60040 44960
L60090 44940
L60160 44940
L60210 44960
L60230 44980
L60260 45030
L60260 45220
L59760 45220
L59760 45050
L59780 45010
L59800 44980
L59850 44960
L59900 44960
L59950 44980
L59970 45010
L59990 45050
L59990 45220
" />
<path d="M60260 44650
L60230 44700
L60210 44720
L60160 44740
L60020 44740
L59970 44720
L59950 44700
L59920 44650
L59920 44580
L59950 44530
L59970 44510
L60020 44480
L60160 44480
L60210 44510
L60230 44530
L60260 44580
L60260 44650
" />
<path d="M60260 44200
L60230 44250
L60210 44270
L60160 44290
L60020 44290
L59970 44270
L59950 44250
L59920 44200
L59920 44130
L59950 44080
L59970 44060
L60020 44030
L60160 44030
L60210 44060
L60230 44080
L60260 44130
L60260 44200
" />
<path d="M59920 43890
L59920 43700
" />
<path d="M59760 43820
L60180 43820
L60230 43800
L60260 43750
L60260 43700
" />
<path d="M59730 43170
L60380 43600
" />
<path d="M60260 42730
L60020 42890
" />
<path d="M60260 43010
L59760 43010
L59760 42820
L59780 42770
L59800 42750
L59850 42730
L59920 42730
L59970 42750
L59990 42770
L60020 42820
L60020 43010
" />
<path d="M59920 42300
L60260 42300
" />
<path d="M59920 42510
L60180 42510
L60230 42490
L60260 42440
L60260 42370
L60230 42320
L60210 42300
" />
<path d="M59920 42060
L60260 42060
" />
<path d="M59970 42060
L59950 42040
L59920 41990
L59920 41920
L59950 41870
L59990 41850
L60260 41850
" />
<path d="M59760 41090
L60110 41090
L60180 41110
L60230 41160
L60260 41230
L60260 41280
" />
<path d="M59920 40640
L60260 40640
" />
<path d="M59920 40850
L60180 40850
L60230 40830
L60260 40780
L60260 40710
L60230 40660
L60210 40640
" />
<path d="M60260 40400
L59920 40400
" />
<path d="M59970 40400
L59950 40380
L59920 40330
L59920 40260
L59950 40210
L59990 40190
L60260 40190
" />
<path d="M59990 40190
L59950 40160
L59920 40120
L59920 40040
L59950 40000
L59990 39970
L60260 39970
" />
<path d="M59920 39730
L60420 39730
" />
<path d="M59950 39730
L59920 39680
L59920 39590
L59950 39540
L59970 39520
L60020 39490
L60160 39490
L60210 39520
L60230 39540
L60260 39590
L60260 39680
L60230 39730
" />
<path d="M60230 39090
L60260 39140
L60260 39230
L60230 39280
L60180 39300
L59990 39300
L59950 39280
L59920 39230
L59920 39140
L59950 39090
L59990 39070
L60040 39070
L60090 39300
" />
<path d="M60260 38850
L59920 38850
" />
<path d="M60020 38850
L59970 38830
L59950 38800
L59920 38760
L59920 38710
" />
</g>
<g style="fill:#008484; fill-opacity:0.0; 
stroke:#008484; stroke-width:0; stroke-opacity:1; 
stroke-linecap:round; stroke-linejoin:round;">
</g>
<g style="fill:#840000; fill-opacity:0.0; 
stroke:#840000; stroke-width:0; stroke-opacity:1; 
stroke-linecap:round; stroke-linejoin:round;">
</g>
<g style="fill:#840000; fill-opacity:0.0; 
stroke:#840000; stroke-width:100; stroke-opacity:1; 
stroke-linecap:round; stroke-linejoin:round;">
<rect x="52000" y="41600" width="2000" height="800" rx="0" />
</g>
<g style="fill:#840000; fill-opacity:0.0; 
stroke:#840000; stroke-width:60; stroke-opacity:1; 
stroke-linecap:round; stroke-linejoin:round;">
<path d="M54000 42000
L54500 42000
" />
<path d="M52000 42000
L51500 42000
" />
</g>
<g style="fill:#008484; fill-opacity:0.0; 
stroke:#008484; stroke-width:60; stroke-opacity:1; 
stroke-linecap:round; stroke-linejoin:round;">
<path d="M52910 43060
L52750 42820
" />
<path d="M52630 43060
L52630 42560
L52820 42560
L52870 42580
L52890 42600
L52910 42650
L52910 42720
L52890 42770
L52870 42790
L52820 42820
L52630 42820
" />
<path d="M53390 43060
L53110 43060
" />
<path d="M53250 43060
L53250 42560
L53200 42630
L53150 42680
L53110 42700
" />
<path d="M52650 42260
L52370 42260
" />
<path d="M52510 42260
L52510 41760
L52460 41830
L52410 41880
L52370 41900
" />
<path d="M52960 41760
L53010 41760
L53060 41780
L53080 41800
L53110 41850
L53130 41950
L53130 42070
L53110 42160
L53080 42210
L53060 42230
L53010 42260
L52960 42260
L52920 42230
L52890 42210
L52870 42160
L52850 42070
L52850 41950
L52870 41850
L52890 41800
L52920 41780
L52960 41760
" />
<path d="M53350 42260
L53350 41760
" />
<path d="M53630 42260
L53420 41970
" />
<path d="M53630 41760
L53350 42040
" />
</g>
<g style="fill:#008484; fill-opacity:0.0; 
stroke:#008484; stroke-width:0; stroke-opacity:1; 
stroke-linecap:round; stroke-linejoin:round;">
</g>
<g style="fill:#840000; fill-opacity:0.0; 
stroke:#840000; stroke-width:0; stroke-opacity:1; 
stroke-linecap:round; stroke-linejoin:round;">
</g>
<g style="fill:#840000; fill-opacity:0.0; 
stroke:#840000; stroke-width:60; stroke-opacity:1; 
stroke-linecap:round; stroke-linejoin:round;">
<circle cx="56000" cy="37750" r="250" /> 
<polyline fill="none;"
points="56000,38500
56000,38000
" /> 
</g>
<g style="fill:#008484; fill-opacity:0.0; 
stroke:#008484; stroke-width:60; stroke-opacity:1; 
stroke-linecap:round; stroke-linejoin:round;">
<path d="M55340 36760
L55500 37260
L55670 36760
" />
<path d="M56120 37210
L56100 37230
L56030 37260
L55980 37260
L55910 37230
L55860 37180
L55840 37140
L55820 37040
L55820 36970
L55840 36880
L55860 36830
L55910 36780
L55980 36760
L56030 36760
L56100 36780
L56120 36800
" />
<path d="M56620 37210
L56600 37230
L56530 37260
L56480 37260
L56410 37230
L56360 37180
L56340 37140
L56320 37040
L56320 36970
L56340 36880
L56360 36830
L56410 36780
L56480 36760
L56530 36760
L56600 36780
L56620 36800
" />
</g>
<g style="fill:#008484; fill-opacity:0.0; 
stroke:#008484; stroke-width:0; stroke-opacity:1; 
stroke-linecap:round; stroke-linejoin:round;">
</g>
<g style="fill:#840000; fill-opacity:0.0; 
stroke:#840000; stroke-width:0; stroke-opacity:1; 
stroke-linecap:round; stroke-linejoin:round;">
</g>
<g style="fill:#840000; fill-opacity:0.0; 
stroke:#840000; stroke-width:60; stroke-opacity:1; 
stroke-linecap:round; stroke-linejoin:round;">
<polyline fill="none;"
points="56000,44500
56000,45000
56500,45000
56000,45500
55500,45000
56000,45000
" /> 
</g>
<g style="fill:#008484; fill-opacity:0.0; 
stroke:#008484; stroke-width:60; stroke-opacity:1; 
stroke-linecap:round; stroke-linejoin:round;">
<path d="M55620 45780
L55570 45760
L55500 45760
L55430 45780
L55380 45830
L55360 45880
L55340 45970
L55340 46040
L55360 46140
L55380 46180
L55430 46230
L55500 46260
L55550 46260
L55620 46230
L55640 46210
L55640 46040
L55550 46040
" />
<path d="M55860 46260
L55860 45760
L56140 46260
L56140 45760
" />
<path d="M56380 46260
L56380 45760
L56500 45760
L56570 45780
L56620 45830
L56640 45880
L56660 45970
L56660 46040
L56640 46140
L56620 46180
L56570 46230
L56500 46260
L56380 46260
" />
</g>
<g style="fill:#008400; fill-opacity:0.0; 
stroke:#008400; stroke-width:60; stroke-opacity:1; 
stroke-linecap:round; stroke-linejoin:round;">
<path d="M57000 43000
L56000 43000
" />
<path d="M56000 43000
L56000 44500
" />
<path d="M57000 41000
L56000 41000
" />
<path d="M56000 41000
L56000 38500
" />
<path d="M54500 42000
L57000 42000
" />
<path d="M51500 42000
L50000 42000
" />
</g>
<g style="fill:#008400; fill-opacity:0.0; 
stroke:#008400; stroke-width:0; stroke-opacity:1; 
stroke-linecap:round; stroke-linejoin:round;">
</g>
<g style="fill:#840000; fill-opacity:0.0; 
stroke:#840000; stroke-width:0; stroke-opacity:1; 
stroke-linecap:round; stroke-linejoin:round;">
</g>
<g style="fill:#840000; fill-opacity:0.0; 
stroke:#840000; stroke-width:60; stroke-opacity:1; 
stroke-linecap:round; stroke-linejoin:round;">
<polyline fill="none;"
points="63000,36500
63000,37000
63500,37000
63000,37500
62500,37000
63000,37000
" /> 
</g>
<g style="fill:#008484; fill-opacity:0.0; 
stroke:#008484; stroke-width:60; stroke-opacity:1; 
stroke-linecap:round; stroke-linejoin:round;">
<path d="M62620 37780
L62570 37760
L62500 37760
L62430 37780
L62380 37830
L62360 37880
L62340 37970
L62340 38040
L62360 38140
L62380 38180
L62430 38230
L62500 38260
L62550 38260
L62620 38230
L62640 38210
L62640 38040
L62550 38040
" />
<path d="M62860 38260
L62860 37760
L63140 38260
L63140 37760
" />
<path d="M63380 38260
L63380 37760
L63500 37760
L63570 37780
L63620 37830
L63640 37880
L63660 37970
L63660 38040
L63640 38140
L63620 38180
L63570 38230
L63500 38260
L63380 38260
" />
</g>
<g style="fill:#008400; fill-opacity:0.0; 
stroke:#008400; stroke-width:60; stroke-opacity:1; 
stroke-linecap:round; stroke-linejoin:round;">
<path d="M56000 35000
L60000 35000
" />
</g>
<g style="fill:#008400; fill-opacity:0.0; 
stroke:#008400; stroke-width:0; stroke-opacity:1; 
stroke-linecap:round; stroke-linejoin:round;">
</g>
<g style="fill:#840000; fill-opacity:0.0; 
stroke:#840000; stroke-width:0; stroke-opacity:1; 
stroke-linecap:round; stroke-linejoin:round;">
</g>
<g style="fill:#840000; fill-opacity:0.0; 
stroke:#840000; stroke-width:60; stroke-opacity:1; 
stroke-linecap:round; stroke-linejoin:round;">
<rect x="66500" y="33950" width="600" height="100" rx="0" />
<rect x="66500" y="32950" width="600" height="100" rx="0" />
<rect x="66500" y="32500" width="1000" height="2000" rx="0" />
<path d="M66500 33000
L65000 33000
" />
<path d="M65890 32880
L65610 32880
" />
<path d="M65750 32880
L65750 32380
L65700 32450
L65650 32500
L65610 32520
" />
<path d="M66500 34000
L65000 34000
" />
<path d="M65610 33420
L65630 33400
L65680 33380
L65800 33380
L65840 33400
L65870 33420
L65890 33470
L65890 33520
L65870 33590
L65580 33880
L65890 33880
" />
</g>
<g style="fill:#008484; fill-opacity:0.0; 
stroke:#008484; stroke-width:60; stroke-opacity:1; 
stroke-linecap:round; stroke-linejoin:round;">
<path d="M66630 32260
L66630 31760
L66820 31760
L66870 31780
L66890 31800
L66910 31850
L66910 31920
L66890 31970
L66870 31990
L66820 32020
L66630 32020
" />
<path d="M67080 31760
L67390 31760
L67220 31950
L67300 31950
L67340 31970
L67370 31990
L67390 32040
L67390 32160
L67370 32210
L67340 32230
L67300 32260
L67150 32260
L67110 32230
L67080 32210
" />
<path d="M68230 37170
L68260 37100
L68260 36980
L68230 36940
L68210 36910
L68160 36890
L68110 36890
L68070 36910
L68040 36940
L68020 36980
L67990 37080
L67970 37130
L67950 37150
L67900 37170
L67850 37170
L67800 37150
L67780 37130
L67760 37080
L67760 36960
L67780 36890
" />
<path d="M67760 36740
L67760 36460
" />
<path d="M68260 36600
L67760 36600
" />
<path d="M68260 36290
L67760 36290
L68110 36120
L67760 35960
L68260 35960
" />
<path d="M67970 35650
L67950 35700
L67920 35720
L67880 35740
L67850 35740
L67800 35720
L67780 35700
L67760 35650
L67760 35550
L67780 35510
L67800 35480
L67850 35460
L67880 35460
L67920 35480
L67950 35510
L67970 35550
L67970 35650
L67990 35700
L68020 35720
L68070 35740
L68160 35740
L68210 35720
L68230 35700
L68260 35650
L68260 35550
L68230 35510
L68210 35480
L68160 35460
L68070 35460
L68020 35480
L67990 35510
L67970 35550
" />
<path d="M68260 34860
L67760 34860
L67760 34670
L67780 34620
L67800 34600
L67850 34580
L67920 34580
L67970 34600
L67990 34620
L68020 34670
L68020 34860
" />
<path d="M68260 34290
L68230 34340
L68210 34360
L68160 34380
L68020 34380
L67970 34360
L67950 34340
L67920 34290
L67920 34220
L67950 34170
L67970 34150
L68020 34120
L68160 34120
L68210 34150
L68230 34170
L68260 34220
L68260 34290
" />
<path d="M67920 33960
L68260 33860
L68020 33770
L68260 33670
L67920 33580
" />
<path d="M68230 33200
L68260 33250
L68260 33340
L68230 33390
L68180 33410
L67990 33410
L67950 33390
L67920 33340
L67920 33250
L67950 33200
L67990 33180
L68040 33180
L68090 33410
" />
<path d="M68260 32960
L67920 32960
" />
<path d="M68020 32960
L67970 32940
L67950 32910
L67920 32870
L67920 32820
" />
<path d="M67760 32130
L68110 32130
L68180 32150
L68230 32200
L68260 32270
L68260 32320
" />
<path d="M67920 31680
L68260 31680
" />
<path d="M67920 31890
L68180 31890
L68230 31870
L68260 31820
L68260 31750
L68230 31700
L68210 31680
" />
<path d="M68260 31440
L67920 31440
" />
<path d="M67970 31440
L67950 31420
L67920 31370
L67920 31300
L67950 31250
L67990 31230
L68260 31230
" />
<path d="M67990 31230
L67950 31200
L67920 31160
L67920 31080
L67950 31040
L67990 31010
L68260 31010
" />
<path d="M67920 30770
L68420 30770
" />
<path d="M67950 30770
L67920 30720
L67920 30630
L67950 30580
L67970 30560
L68020 30530
L68160 30530
L68210 30560
L68230 30580
L68260 30630
L68260 30720
L68230 30770
" />
<path d="M68230 30130
L68260 30180
L68260 30270
L68230 30320
L68180 30340
L67990 30340
L67950 30320
L67920 30270
L67920 30180
L67950 30130
L67990 30110
L68040 30110
L68090 30340
" />
<path d="M68260 29890
L67920 29890
" />
<path d="M68020 29890
L67970 29870
L67950 29840
L67920 29800
L67920 29750
" />
</g>
<g style="fill:#008484; fill-opacity:0.0; 
stroke:#008484; stroke-width:0; stroke-opacity:1; 
stroke-linecap:round; stroke-linejoin:round;">
</g>
<g style="fill:#840000; fill-opacity:0.0; 
stroke:#840000; stroke-width:0; stroke-opacity:1; 
stroke-linecap:round; stroke-linejoin:round;">
</g>
<g style="fill:#840000; fill-opacity:0.0; 
stroke:#840000; stroke-width:60; stroke-opacity:1; 
stroke-linecap:round; stroke-linejoin:round;">
<rect x="60500" y="31950" width="600" height="100" rx="0" />
<rect x="60500" y="30950" width="600" height="100" rx="0" />
<rect x="60500" y="30500" width="1000" height="2000" rx="0" />
<path d="M60500 31000
L59000 31000
" />
<path d="M59890 30880
L59610 30880
" />
<path d="M59750 30880
L59750 30380
L59700 30450
L59650 30500
L59610 30520
" />
<path d="M60500 32000
L59000 32000
" />
<path d="M59610 31420
L59630 31400
L59680 31380
L59800 31380
L59840 31400
L59870 31420
L59890 31470
L59890 31520
L59870 31590
L59580 31880
L59890 31880
" />
</g>
<g style="fill:#008484; fill-opacity:0.0; 
stroke:#008484; stroke-width:60; stroke-opacity:1; 
stroke-linecap:round; stroke-linejoin:round;">
<path d="M60630 30260
L60630 29760
L60820 29760
L60870 29780
L60890 29800
L60910 29850
L60910 29920
L60890 29970
L60870 29990
L60820 30020
L60630 30020
" />
<path d="M61390 30260
L61110 30260
" />
<path d="M61250 30260
L61250 29760
L61200 29830
L61150 29880
L61110 29900
" />
<path d="M61990 34910
L61990 34740
" />
<path d="M62260 34670
L62260 34910
L61760 34910
L61760 34670
" />
<path d="M62230 34480
L62260 34410
L62260 34290
L62230 34250
L62210 34220
L62160 34200
L62110 34200
L62070 34220
L62040 34250
L62020 34290
L61990 34390
L61970 34440
L61950 34460
L61900 34480
L61850 34480
L61800 34460
L61780 34440
L61760 34390
L61760 34270
L61780 34200
" />
<path d="M62260 33980
L61760 33980
L61760 33790
L61780 33740
L61800 33720
L61850 33700
L61920 33700
L61970 33720
L61990 33740
L62020 33790
L62020 33980
" />
<path d="M62260 33100
L61760 33100
L61760 32910
L61780 32860
L61800 32840
L61850 32820
L61920 32820
L61970 32840
L61990 32860
L62020 32910
L62020 33100
" />
<path d="M62260 32530
L62230 32580
L62210 32600
L62160 32620
L62020 32620
L61970 32600
L61950 32580
L61920 32530
L61920 32460
L61950 32410
L61970 32390
L62020 32360
L62160 32360
L62210 32390
L62230 32410
L62260 32460
L62260 32530
" />
<path d="M61920 32200
L62260 32100
L62020 32010
L62260 31910
L61920 31820
" />
<path d="M62230 31440
L62260 31490
L62260 31580
L62230 31630
L62180 31650
L61990 31650
L61950 31630
L61920 31580
L61920 31490
L61950 31440
L61990 31420
L62040 31420
L62090 31650
" />
<path d="M62260 31200
L61920 31200
" />
<path d="M62020 31200
L61970 31180
L61950 31150
L61920 31110
L61920 31060
" />
<path d="M61760 30370
L62110 30370
L62180 30390
L62230 30440
L62260 30510
L62260 30560
" />
<path d="M61920 29920
L62260 29920
" />
<path d="M61920 30130
L62180 30130
L62230 30110
L62260 30060
L62260 29990
L62230 29940
L62210 29920
" />
<path d="M62260 29680
L61920 29680
" />
<path d="M61970 29680
L61950 29660
L61920 29610
L61920 29540
L61950 29490
L61990 29470
L62260 29470
" />
<path d="M61990 29470
L61950 29440
L61920 29400
L61920 29320
L61950 29280
L61990 29250
L62260 29250
" />
<path d="M61920 29010
L62420 29010
" />
<path d="M61950 29010
L61920 28960
L61920 28870
L61950 28820
L61970 28800
L62020 28770
L62160 28770
L62210 28800
L62230 28820
L62260 28870
L62260 28960
L62230 29010
" />
<path d="M62230 28370
L62260 28420
L62260 28510
L62230 28560
L62180 28580
L61990 28580
L61950 28560
L61920 28510
L61920 28420
L61950 28370
L61990 28350
L62040 28350
L62090 28580
" />
<path d="M62260 28130
L61920 28130
" />
<path d="M62020 28130
L61970 28110
L61950 28080
L61920 28040
L61920 27990
" />
</g>
<g style="fill:#008484; fill-opacity:0.0; 
stroke:#008484; stroke-width:0; stroke-opacity:1; 
stroke-linecap:round; stroke-linejoin:round;">
</g>
<g style="fill:#840000; fill-opacity:0.0; 
stroke:#840000; stroke-width:0; stroke-opacity:1; 
stroke-linecap:round; stroke-linejoin:round;">
</g>
<g style="fill:#840000; fill-opacity:0.0; 
stroke:#840000; stroke-width:60; stroke-opacity:1; 
stroke-linecap:round; stroke-linejoin:round;">
<circle cx="58000" cy="29250" r="250" /> 
<polyline fill="none;"
points="58000,30000
58000,29500
" /> 
</g>
<g style="fill:#008484; fill-opacity:0.0; 
stroke:#008484; stroke-width:60; stroke-opacity:1; 
stroke-linecap:round; stroke-linejoin:round;">
<path d="M57340 28260
L57500 28760
L57670 28260
" />
<path d="M58120 28710
L58100 28730
L58030 28760
L57980 28760
L57910 28730
L57860 28680
L57840 28640
L57820 28540
L57820 28470
L57840 28380
L57860 28330
L57910 28280
L57980 28260
L58030 28260
L58100 28280
L58120 28300
" />
<path d="M58620 28710
L58600 28730
L58530 28760
L58480 28760
L58410 28730
L58360 28680
L58340 28640
L58320 28540
L58320 28470
L58340 28380
L58360 28330
L58410 28280
L58480 28260
L58530 28260
L58600 28280
L58620 28300
" />
</g>
<g style="fill:#008484; fill-opacity:0.0; 
stroke:#008484; stroke-width:0; stroke-opacity:1; 
stroke-linecap:round; stroke-linejoin:round;">
</g>
<g style="fill:#840000; fill-opacity:0.0; 
stroke:#840000; stroke-width:0; stroke-opacity:1; 
stroke-linecap:round; stroke-linejoin:round;">
</g>
<g style="fill:#840000; fill-opacity:0.0; 
stroke:#840000; stroke-width:60; stroke-opacity:1; 
stroke-linecap:round; stroke-linejoin:round;">
<circle cx="64000" cy="31250" r="250" /> 
<polyline fill="none;"
points="64000,32000
64000,31500
" /> 
</g>
<g style="fill:#008484; fill-opacity:0.0; 
stroke:#008484; stroke-width:60; stroke-opacity:1; 
stroke-linecap:round; stroke-linejoin:round;">
<path d="M63340 30260
L63500 30760
L63670 30260
" />
<path d="M64120 30710
L64100 30730
L64030 30760
L63980 30760
L63910 30730
L63860 30680
L63840 30640
L63820 30540
L63820 30470
L63840 30380
L63860 30330
L63910 30280
L63980 30260
L64030 30260
L64100 30280
L64120 30300
" />
<path d="M64620 30710
L64600 30730
L64530 30760
L64480 30760
L64410 30730
L64360 30680
L64340 30640
L64320 30540
L64320 30470
L64340 30380
L64360 30330
L64410 30280
L64480 30260
L64530 30260
L64600 30280
L64620 30300
" />
</g>
<g style="fill:#008400; fill-opacity:0.0; 
stroke:#008400; stroke-width:60; stroke-opacity:1; 
stroke-linecap:round; stroke-linejoin:round;">
<path d="M65000 33000
L64000 33000
" />
<path d="M64000 33000
L64000 32000
" />
<path d="M59000 31000
L58000 31000
" />
<path d="M58000 31000
L58000 30000
" />
</g>
<g style="fill:#008400; fill-opacity:0.0; 
stroke:#008400; stroke-width:0; stroke-opacity:1; 
stroke-linecap:round; stroke-linejoin:round;">
</g>
<g style="fill:#840000; fill-opacity:0.0; 
stroke:#840000; stroke-width:0; stroke-opacity:1; 
stroke-linecap:round; stroke-linejoin:round;">
</g>
<g style="fill:#840000; fill-opacity:0.0; 
stroke:#840000; stroke-width:130; stroke-opacity:1; 
stroke-linecap:round; stroke-linejoin:round;">
<polyline fill="none;"
points="59300,34400
59300,35600
" /> 
</g>
<g style="fill:#840000; fill-opacity:0.0; 
stroke:#840000; stroke-width:120; stroke-opacity:1; 
stroke-linecap:round; stroke-linejoin:round;">
<polyline fill="none;"
points="59700,34400
59700,35600
" /> 
</g>
<g style="fill:#840000; fill-opacity:0.0; 
stroke:#840000; stroke-width:60; stroke-opacity:1; 
stroke-linecap:round; stroke-linejoin:round;">
<path d="M59700 35000
L60500 35000
" />
<path d="M59300 35000
L58500 35000
" />
</g>
<g style="fill:#008484; fill-opacity:0.0; 
stroke:#008484; stroke-width:60; stroke-opacity:1; 
stroke-linecap:round; stroke-linejoin:round;">
<path d="M60340 35680
L60360 35700
L60390 35770
L60390 35820
L60360 35890
L60310 35940
L60270 35960
L60170 35980
L60100 35980
L60010 35960
L59960 35940
L59910 35890
L59890 35820
L59890 35770
L59910 35700
L59930 35680
" />
<path d="M60390 35200
L60390 35480
" />
<path d="M60390 35340
L59890 35340
L59960 35390
L60010 35440
L60030 35480
" />
<path d="M58890 36080
L58890 36360
" />
<path d="M58890 36220
L58390 36220
L58460 36270
L58510 36320
L58530 36360
" />
<path d="M58550 35650
L58890 35650
" />
<path d="M58550 35860
L58810 35860
L58860 35840
L58890 35790
L58890 35720
L58860 35670
L58840 35650
" />
<path d="M58620 35240
L58620 35410
" />
<path d="M58890 35410
L58390 35410
L58390 35170
" />
</g>
<g style="fill:#008484; fill-opacity:0.0; 
stroke:#008484; stroke-width:0; stroke-opacity:1; 
stroke-linecap:round; stroke-linejoin:round;">
</g>
<g style="fill:#008400; fill-opacity:0.0; 
stroke:#008400; stroke-width:0; stroke-opacity:1; 
stroke-linecap:round; stroke-linejoin:round;">
</g>
<g style="fill:#008400; fill-opacity:1.0; 
stroke:#008400; stroke-width:100; stroke-opacity:1; 
stroke-linecap:round; stroke-linejoin:round;">
<circle cx="50000" cy="42000" r="200" /> 
</g>
<g style="fill:#008400; fill-opacity:1.0; 
stroke:#008400; stroke-width:0; stroke-opacity:1; 
stroke-linecap:round; stroke-linejoin:round;">
</g>
<g style="fill:#008400; fill-opacity:1.0; 
stroke:#008400; stroke-width:100; stroke-opacity:1; 
stroke-linecap:round; stroke-linejoin:round;">
<circle cx="36500" cy="34000" r="200" /> 
</g>
<g style="fill:#008400; fill-opacity:1.0; 
stroke:#008400; stroke-width:60; stroke-opacity:1; 
stroke-linecap:round; stroke-linejoin:round;">
</g>
<g style="fill:#008400; fill-opacity:0.0; 
stroke:#008400; stroke-width:60; stroke-opacity:1; 
stroke-linecap:round; stroke-linejoin:round;">
<path d="M46000 41000
L46000 39500
" />
<path d="M47000 39500
L47000 41000
" />
<path d="M50000 39500
L50000 46500
" />
<path d="M50000 46500
L36500 46500
" />
<path d="M56000 34000
L65000 34000
" />
<path d="M56000 33000
L58000 33000
" />
<path d="M58000 33000
L58000 32000
" />
<path d="M58000 32000
L59000 32000
" />
<path d="M60500 35000
L63000 35000
" />
<path d="M63000 35000
L63000 36500
" />
</g>
<g style="fill:#008400; fill-opacity:0.0; 
stroke:#008400; stroke-width:0; stroke-opacity:1; 
stroke-linecap:round; stroke-linejoin:round;">
</g>
<g style="fill:#840000; fill-opacity:0.0; 
stroke:#840000; stroke-width:0; stroke-opacity:1; 
stroke-linecap:round; stroke-linejoin:round;">
</g>
<g style="fill:#840000; fill-opacity:0.0; 
stroke:#840000; stroke-width:60; stroke-opacity:1; 
stroke-linecap:round; stroke-linejoin:round;">
<rect x="34400" y="41450" width="600" height="100" rx="0" />
<rect x="34400" y="42450" width="600" height="100" rx="0" />
<rect x="34000" y="41000" width="1000" height="2000" rx="0" />
<path d="M35000 42500
L36500 42500
" />
<path d="M35890 42380
L35610 42380
" />
<path d="M35750 42380
L35750 41880
L35700 41950
L35650 42000
L35610 42020
" />
<path d="M35000 41500
L36500 41500
" />
<path d="M35610 40920
L35630 40900
L35680 40880
L35800 40880
L35840 40900
L35870 40920
L35890 40970
L35890 41020
L35870 41090
L35580 41380
L35890 41380
" />
</g>
<g style="fill:#008484; fill-opacity:0.0; 
stroke:#008484; stroke-width:60; stroke-opacity:1; 
stroke-linecap:round; stroke-linejoin:round;">
<path d="M34130 43690
L34130 43190
L34320 43190
L34370 43210
L34390 43230
L34410 43280
L34410 43350
L34390 43400
L34370 43420
L34320 43450
L34130 43450
" />
<path d="M34840 43350
L34840 43690
" />
<path d="M34720 43160
L34610 43520
L34910 43520
" />
<path d="M33660 45600
L33690 45530
L33690 45410
L33660 45370
L33640 45340
L33590 45320
L33540 45320
L33500 45340
L33470 45370
L33450 45410
L33420 45510
L33400 45560
L33380 45580
L33330 45600
L33280 45600
L33230 45580
L33210 45560
L33190 45510
L33190 45390
L33210 45320
" />
<path d="M33190 45170
L33190 44890
" />
<path d="M33690 45030
L33190 45030
" />
<path d="M33690 44720
L33190 44720
L33540 44550
L33190 44390
L33690 44390
" />
<path d="M33400 44080
L33380 44130
L33350 44150
L33310 44170
L33280 44170
L33230 44150
L33210 44130
L33190 44080
L33190 43980
L33210 43940
L33230 43910
L33280 43890
L33310 43890
L33350 43910
L33380 43940
L33400 43980
L33400 44080
L33420 44130
L33450 44150
L33500 44170
L33590 44170
L33640 44150
L33660 44130
L33690 44080
L33690 43980
L33660 43940
L33640 43910
L33590 43890
L33500 43890
L33450 43910
L33420 43940
L33400 43980
" />
<path d="M33690 43010
L33450 43170
" />
<path d="M33690 43290
L33190 43290
L33190 43100
L33210 43050
L33230 43030
L33280 43010
L33350 43010
L33400 43030
L33420 43050
L33450 43100
L33450 43290
" />
<path d="M33660 42600
L33690 42650
L33690 42740
L33660 42790
L33610 42810
L33420 42810
L33380 42790
L33350 42740
L33350 42650
L33380 42600
L33420 42580
L33470 42580
L33520 42810
" />
<path d="M33660 42380
L33690 42340
L33690 42240
L33660 42190
L33610 42170
L33590 42170
L33540 42190
L33520 42240
L33520 42310
L33500 42360
L33450 42380
L33420 42380
L33380 42360
L33350 42310
L33350 42240
L33380 42190
" />
<path d="M33660 41770
L33690 41820
L33690 41910
L33660 41960
L33610 41980
L33420 41980
L33380 41960
L33350 41910
L33350 41820
L33380 41770
L33420 41750
L33470 41750
L33520 41980
" />
<path d="M33350 41600
L33350 41410
" />
<path d="M33190 41530
L33610 41530
L33660 41510
L33690 41460
L33690 41410
" />
<path d="M33190 40720
L33540 40720
L33610 40740
L33660 40790
L33690 40860
L33690 40910
" />
<path d="M33350 40270
L33690 40270
" />
<path d="M33350 40480
L33610 40480
L33660 40460
L33690 40410
L33690 40340
L33660 40290
L33640 40270
" />
<path d="M33690 40030
L33350 40030
" />
<path d="M33400 40030
L33380 40010
L33350 39960
L33350 39890
L33380 39840
L33420 39820
L33690 39820
" />
<path d="M33420 39820
L33380 39790
L33350 39750
L33350 39670
L33380 39630
L33420 39600
L33690 39600
" />
<path d="M33350 39360
L33850 39360
" />
<path d="M33380 39360
L33350 39310
L33350 39220
L33380 39170
L33400 39150
L33450 39120
L33590 39120
L33640 39150
L33660 39170
L33690 39220
L33690 39310
L33660 39360
" />
<path d="M33660 38720
L33690 38770
L33690 38860
L33660 38910
L33610 38930
L33420 38930
L33380 38910
L33350 38860
L33350 38770
L33380 38720
L33420 38700
L33470 38700
L33520 38930
" />
<path d="M33690 38480
L33350 38480
" />
<path d="M33450 38480
L33400 38460
L33380 38430
L33350 38390
L33350 38340
" />
</g>
<g style="fill:#008400; fill-opacity:0.0; 
stroke:#008400; stroke-width:60; stroke-opacity:1; 
stroke-linecap:round; stroke-linejoin:round;">
<path d="M36500 32000
L36500 41500
" />
<path d="M36500 46500
L36500 42500
" />
</g>
<g style="fill:#840000; fill-opacity:0.0; 
stroke:#840000; stroke-width:60; stroke-opacity:1; 
stroke-linecap:round; stroke-linejoin:round;">
<path d="M39760 40270
L39760 39670
L39910 39670
L39990 39700
L40050 39760
L40080 39810
L40110 39930
L40110 40010
L40080 40130
L40050 40190
L39990 40240
L39910 40270
L39760 40270
" />
<path d="M40360 40270
L40360 39870
" />
<path d="M40360 39990
L40390 39930
L40420 39900
L40480 39870
L40530 39870
" />
<path d="M40680 39870
L40820 40270
" />
<path d="M40960 39870
L40820 40270
L40760 40410
L40730 40440
L40680 40470
" />
<path d="M41420 40240
L41360 40270
L41250 40270
L41190 40240
L41160 40190
L41160 39960
L41190 39900
L41250 39870
L41360 39870
L41420 39900
L41450 39960
L41450 40010
L41160 40070
" />
<path d="M41700 40270
L41700 39870
" />
<path d="M41700 39990
L41730 39930
L41760 39900
L41820 39870
L41870 39870
" />
<path d="M42040 40100
L42330 40100
" />
<path d="M41990 40270
L42190 39670
L42390 40270
" />
<path d="M42580 40270
L42580 39670
L42730 39670
L42810 39700
L42870 39760
L42900 39810
L42930 39930
L42930 40010
L42900 40130
L42870 40190
L42810 40240
L42730 40270
L42580 40270
" />
<path d="M43530 40210
L43500 40240
L43410 40270
L43350 40270
L43270 40240
L43210 40190
L43180 40130
L43150 40010
L43150 39930
L43180 39810
L43210 39760
L43270 39700
L43350 39670
L43410 39670
L43500 39700
L43530 39730
" />
</g>
<g style="fill:#840000; fill-opacity:0.0; 
stroke:#840000; stroke-width:100; stroke-opacity:1; 
stroke-linecap:round; stroke-linejoin:round;">
<polyline fill="none;"
points="44000,40000
43700,39460
39390,39460
39390,40000
39390,40540
43700,40540
44000,40000
" /> 
</g>
<g style="fill:#840000; fill-opacity:0.0; 
stroke:#840000; stroke-width:60; stroke-opacity:1; 
stroke-linecap:round; stroke-linejoin:round;">
</g>
<g style="fill:#008400; fill-opacity:0.0; 
stroke:#008400; stroke-width:60; stroke-opacity:1; 
stroke-linecap:round; stroke-linejoin:round;">
<path d="M44000 40000
L45000 40000
" />
<path d="M45000 40000
L45000 39500
" />
</g>
<g style="fill:#840000; fill-opacity:0.0; 
stroke:#840000; stroke-width:60; stroke-opacity:1; 
stroke-linecap:round; stroke-linejoin:round;">
<path d="M58450 26170
L58590 26770
L58700 26340
L58820 26770
L58960 26170
" />
<path d="M59450 26770
L59450 26460
L59420 26400
L59360 26370
L59250 26370
L59190 26400
" />
<path d="M59450 26740
L59390 26770
L59250 26770
L59190 26740
L59160 26690
L59160 26630
L59190 26570
L59250 26540
L59390 26540
L59450 26510
" />
<path d="M59700 26740
L59760 26770
L59880 26770
L59930 26740
L59960 26690
L59960 26660
L59930 26600
L59880 26570
L59790 26570
L59730 26540
L59700 26490
L59700 26460
L59730 26400
L59790 26370
L59880 26370
L59930 26400
" />
<path d="M60220 26770
L60220 26170
" />
<path d="M60480 26770
L60480 26460
L60450 26400
L60390 26370
L60310 26370
L60250 26400
L60220 26430
" />
<path d="M60990 26740
L60930 26770
L60820 26770
L60760 26740
L60730 26690
L60730 26460
L60760 26400
L60820 26370
L60930 26370
L60990 26400
L61020 26460
L61020 26510
L60730 26570
" />
<path d="M61270 26770
L61270 26370
" />
<path d="M61270 26490
L61300 26430
L61330 26400
L61390 26370
L61440 26370
" />
<path d="M61610 26600
L61900 26600
" />
<path d="M61560 26770
L61760 26170
L61960 26770
" />
<path d="M62150 26770
L62150 26170
L62300 26170
L62380 26200
L62440 26260
L62470 26310
L62500 26430
L62500 26510
L62470 26630
L62440 26690
L62380 26740
L62300 26770
L62150 26770
" />
<path d="M63100 26710
L63070 26740
L62980 26770
L62920 26770
L62840 26740
L62780 26690
L62750 26630
L62720 26510
L62720 26430
L62750 26310
L62780 26260
L62840 26200
L62920 26170
L62980 26170
L63070 26200
L63100 26230
" />
</g>
<g style="fill:#840000; fill-opacity:0.0; 
stroke:#840000; stroke-width:100; stroke-opacity:1; 
stroke-linecap:round; stroke-linejoin:round;">
<polyline fill="none;"
points="58000,26500
58300,27040
63440,27040
63440,26500
63440,25960
58300,25960
58000,26500
" /> 
</g>
<g style="fill:#840000; fill-opacity:0.0; 
stroke:#840000; stroke-width:60; stroke-opacity:1; 
stroke-linecap:round; stroke-linejoin:round;">
</g>
<g style="fill:#008400; fill-opacity:0.0; 
stroke:#008400; stroke-width:60; stroke-opacity:1; 
stroke-linecap:round; stroke-linejoin:round;">
<path d="M56000 28000
L57000 28000
" />
<path d="M57000 28000
L57000 26500
" />
<path d="M57000 26500
L58000 26500
" />
</g> 
</svg>
