G04 #@! TF.FileFunction,Legend,Top*
%FSLAX46Y46*%
G04 Gerber Fmt 4.6, Leading zero omitted, Abs format (unit mm)*
G04 Created by KiCad (PCBNEW 4.0.4-stable) date Mon Dec  5 14:52:49 2016*
%MOMM*%
%LPD*%
G01*
G04 APERTURE LIST*
%ADD10C,0.100000*%
%ADD11C,0.150000*%
G04 APERTURE END LIST*
D10*
D11*
X138430000Y-105410000D02*
X138430000Y-130810000D01*
X138430000Y-130810000D02*
X135890000Y-130810000D01*
X135890000Y-130810000D02*
X135890000Y-105410000D01*
X138710000Y-102590000D02*
X138710000Y-104140000D01*
X138430000Y-105410000D02*
X135890000Y-105410000D01*
X135610000Y-104140000D02*
X135610000Y-102590000D01*
X135610000Y-102590000D02*
X138710000Y-102590000D01*
X163830000Y-105410000D02*
X163830000Y-130810000D01*
X163830000Y-130810000D02*
X161290000Y-130810000D01*
X161290000Y-130810000D02*
X161290000Y-105410000D01*
X164110000Y-102590000D02*
X164110000Y-104140000D01*
X163830000Y-105410000D02*
X161290000Y-105410000D01*
X161010000Y-104140000D02*
X161010000Y-102590000D01*
X161010000Y-102590000D02*
X164110000Y-102590000D01*
X141590000Y-105950000D02*
X157590000Y-105950000D01*
X141590000Y-97950000D02*
X141590000Y-121950000D01*
X141590000Y-121950000D02*
X157590000Y-121950000D01*
X157590000Y-121950000D02*
X157590000Y-97950000D01*
X157590000Y-97950000D02*
X141590000Y-97950000D01*
X136421905Y-99492381D02*
X136421905Y-98492381D01*
X136802858Y-98492381D01*
X136898096Y-98540000D01*
X136945715Y-98587619D01*
X136993334Y-98682857D01*
X136993334Y-98825714D01*
X136945715Y-98920952D01*
X136898096Y-98968571D01*
X136802858Y-99016190D01*
X136421905Y-99016190D01*
X137945715Y-99492381D02*
X137374286Y-99492381D01*
X137660000Y-99492381D02*
X137660000Y-98492381D01*
X137564762Y-98635238D01*
X137469524Y-98730476D01*
X137374286Y-98778095D01*
X161821905Y-99492381D02*
X161821905Y-98492381D01*
X162202858Y-98492381D01*
X162298096Y-98540000D01*
X162345715Y-98587619D01*
X162393334Y-98682857D01*
X162393334Y-98825714D01*
X162345715Y-98920952D01*
X162298096Y-98968571D01*
X162202858Y-99016190D01*
X161821905Y-99016190D01*
X162774286Y-98587619D02*
X162821905Y-98540000D01*
X162917143Y-98492381D01*
X163155239Y-98492381D01*
X163250477Y-98540000D01*
X163298096Y-98587619D01*
X163345715Y-98682857D01*
X163345715Y-98778095D01*
X163298096Y-98920952D01*
X162726667Y-99492381D01*
X163345715Y-99492381D01*
X148828095Y-125402381D02*
X148828095Y-126211905D01*
X148875714Y-126307143D01*
X148923333Y-126354762D01*
X149018571Y-126402381D01*
X149209048Y-126402381D01*
X149304286Y-126354762D01*
X149351905Y-126307143D01*
X149399524Y-126211905D01*
X149399524Y-125402381D01*
X150399524Y-126402381D02*
X149828095Y-126402381D01*
X150113809Y-126402381D02*
X150113809Y-125402381D01*
X150018571Y-125545238D01*
X149923333Y-125640476D01*
X149828095Y-125688095D01*
X143447142Y-102116667D02*
X143923333Y-102116667D01*
X143351904Y-102402381D02*
X143685237Y-101402381D01*
X144018571Y-102402381D01*
X144351904Y-101735714D02*
X144351904Y-102402381D01*
X144351904Y-101830952D02*
X144399523Y-101783333D01*
X144494761Y-101735714D01*
X144637619Y-101735714D01*
X144732857Y-101783333D01*
X144780476Y-101878571D01*
X144780476Y-102402381D01*
X145113809Y-101735714D02*
X145494761Y-101735714D01*
X145256666Y-101402381D02*
X145256666Y-102259524D01*
X145304285Y-102354762D01*
X145399523Y-102402381D01*
X145494761Y-102402381D01*
X146209048Y-102354762D02*
X146113810Y-102402381D01*
X145923333Y-102402381D01*
X145828095Y-102354762D01*
X145780476Y-102259524D01*
X145780476Y-101878571D01*
X145828095Y-101783333D01*
X145923333Y-101735714D01*
X146113810Y-101735714D01*
X146209048Y-101783333D01*
X146256667Y-101878571D01*
X146256667Y-101973810D01*
X145780476Y-102069048D01*
X146685238Y-101735714D02*
X146685238Y-102402381D01*
X146685238Y-101830952D02*
X146732857Y-101783333D01*
X146828095Y-101735714D01*
X146970953Y-101735714D01*
X147066191Y-101783333D01*
X147113810Y-101878571D01*
X147113810Y-102402381D01*
X147590000Y-101735714D02*
X147590000Y-102402381D01*
X147590000Y-101830952D02*
X147637619Y-101783333D01*
X147732857Y-101735714D01*
X147875715Y-101735714D01*
X147970953Y-101783333D01*
X148018572Y-101878571D01*
X148018572Y-102402381D01*
X148923334Y-102402381D02*
X148923334Y-101878571D01*
X148875715Y-101783333D01*
X148780477Y-101735714D01*
X148590000Y-101735714D01*
X148494762Y-101783333D01*
X148923334Y-102354762D02*
X148828096Y-102402381D01*
X148590000Y-102402381D01*
X148494762Y-102354762D01*
X148447143Y-102259524D01*
X148447143Y-102164286D01*
X148494762Y-102069048D01*
X148590000Y-102021429D01*
X148828096Y-102021429D01*
X148923334Y-101973810D01*
X150161429Y-102402381D02*
X150161429Y-101402381D01*
X150732858Y-102402381D02*
X150304286Y-101830952D01*
X150732858Y-101402381D02*
X150161429Y-101973810D01*
X151542382Y-102354762D02*
X151447144Y-102402381D01*
X151256667Y-102402381D01*
X151161429Y-102354762D01*
X151113810Y-102259524D01*
X151113810Y-101878571D01*
X151161429Y-101783333D01*
X151256667Y-101735714D01*
X151447144Y-101735714D01*
X151542382Y-101783333D01*
X151590001Y-101878571D01*
X151590001Y-101973810D01*
X151113810Y-102069048D01*
X152399525Y-102354762D02*
X152304287Y-102402381D01*
X152113810Y-102402381D01*
X152018572Y-102354762D01*
X151970953Y-102259524D01*
X151970953Y-101878571D01*
X152018572Y-101783333D01*
X152113810Y-101735714D01*
X152304287Y-101735714D01*
X152399525Y-101783333D01*
X152447144Y-101878571D01*
X152447144Y-101973810D01*
X151970953Y-102069048D01*
X152875715Y-101735714D02*
X152875715Y-102735714D01*
X152875715Y-101783333D02*
X152970953Y-101735714D01*
X153161430Y-101735714D01*
X153256668Y-101783333D01*
X153304287Y-101830952D01*
X153351906Y-101926190D01*
X153351906Y-102211905D01*
X153304287Y-102307143D01*
X153256668Y-102354762D01*
X153161430Y-102402381D01*
X152970953Y-102402381D01*
X152875715Y-102354762D01*
X153923334Y-102402381D02*
X153828096Y-102354762D01*
X153780477Y-102307143D01*
X153732858Y-102211905D01*
X153732858Y-101926190D01*
X153780477Y-101830952D01*
X153828096Y-101783333D01*
X153923334Y-101735714D01*
X154066192Y-101735714D01*
X154161430Y-101783333D01*
X154209049Y-101830952D01*
X154256668Y-101926190D01*
X154256668Y-102211905D01*
X154209049Y-102307143D01*
X154161430Y-102354762D01*
X154066192Y-102402381D01*
X153923334Y-102402381D01*
X155113811Y-101735714D02*
X155113811Y-102402381D01*
X154685239Y-101735714D02*
X154685239Y-102259524D01*
X154732858Y-102354762D01*
X154828096Y-102402381D01*
X154970954Y-102402381D01*
X155066192Y-102354762D01*
X155113811Y-102307143D01*
X155447144Y-101735714D02*
X155828096Y-101735714D01*
X155590001Y-101402381D02*
X155590001Y-102259524D01*
X155637620Y-102354762D01*
X155732858Y-102402381D01*
X155828096Y-102402381D01*
M02*
