<?xml version="1.0" standalone="no"?>
 <!DOCTYPE svg PUBLIC "-//W3C//DTD SVG 1.1//EN" 
 "http://www.w3.org/Graphics/SVG/1.1/DTD/svg11.dtd"> 
<svg xmlns="http://www.w3.org/2000/svg" version="1.1" 
    width="29.7002cm" height="21.0007cm" viewBox="0 0 116930 82680 ">
<title>SVG Picture created as esp-14.svg date 2016/12/15 22:42:37 </title>
  <desc>Picture generated by Eeschema-SVG </desc>
<g style="fill:#000000; fill-opacity:1;stroke:#000000; stroke-opacity:1;
stroke-linecap:round; stroke-linejoin:round; "
 transform="translate(0 0) scale(1 1)">
</g>
<g style="fill:#000000; fill-opacity:0.0; 
stroke:#000000; stroke-width:0; stroke-opacity:1; 
stroke-linecap:round; stroke-linejoin:round;">
</g>
<g style="fill:#840000; fill-opacity:0.0; 
stroke:#840000; stroke-width:0; stroke-opacity:1; 
stroke-linecap:round; stroke-linejoin:round;">
</g>
<g style="fill:#840000; fill-opacity:0.0; 
stroke:#840000; stroke-width:60; stroke-opacity:1; 
stroke-linecap:round; stroke-linejoin:round;">
<line x1="53500" y1="31500" x2="53500" y2="42500" />
<rect x="53500" y="31500" width="12000" height="11000" rx="0" />
<path d="M53500 33000
L51500 33000
" />
</g>
<g style="fill:#008484; fill-opacity:0.0; 
stroke:#008484; stroke-width:60; stroke-opacity:1; 
stroke-linecap:round; stroke-linejoin:round;">
<path d="M54020 33230
L54020 32730
L54190 33080
L54350 32730
L54350 33230
" />
<path d="M54470 33270
L54850 33270
" />
<path d="M54970 33230
L54970 32730
L55160 32730
L55210 32750
L55230 32770
L55250 32820
L55250 32890
L55230 32940
L55210 32960
L55160 32990
L54970 32990
" />
<path d="M55750 33180
L55730 33200
L55660 33230
L55610 33230
L55540 33200
L55490 33150
L55470 33110
L55450 33010
L55450 32940
L55470 32850
L55490 32800
L55540 32750
L55610 32730
L55660 32730
L55730 32750
L55750 32770
" />
<path d="M56210 32730
L55970 32730
L55950 32960
L55970 32940
L56020 32920
L56140 32920
L56180 32940
L56210 32960
L56230 33010
L56230 33130
L56210 33180
L56180 33200
L56140 33230
L56020 33230
L55970 33200
L55950 33180
" />
</g>
<g style="fill:#840000; fill-opacity:0.0; 
stroke:#840000; stroke-width:60; stroke-opacity:1; 
stroke-linecap:round; stroke-linejoin:round;">
<path d="M52640 32880
L52360 32880
" />
<path d="M52500 32880
L52500 32380
L52450 32450
L52400 32500
L52360 32520
" />
<path d="M53500 34000
L51500 34000
" />
</g>
<g style="fill:#008484; fill-opacity:0.0; 
stroke:#008484; stroke-width:60; stroke-opacity:1; 
stroke-linecap:round; stroke-linejoin:round;">
<path d="M54020 34230
L54020 33730
L54190 34080
L54350 33730
L54350 34230
" />
<path d="M54470 34270
L54850 34270
" />
<path d="M54970 34230
L54970 33730
L55160 33730
L55210 33750
L55230 33770
L55250 33820
L55250 33890
L55230 33940
L55210 33960
L55160 33990
L54970 33990
" />
<path d="M55750 34180
L55730 34200
L55660 34230
L55610 34230
L55540 34200
L55490 34150
L55470 34110
L55450 34010
L55450 33940
L55470 33850
L55490 33800
L55540 33750
L55610 33730
L55660 33730
L55730 33750
L55750 33770
" />
<path d="M56180 33730
L56090 33730
L56040 33750
L56020 33770
L55970 33850
L55950 33940
L55950 34130
L55970 34180
L55990 34200
L56040 34230
L56140 34230
L56180 34200
L56210 34180
L56230 34130
L56230 34010
L56210 33960
L56180 33940
L56140 33920
L56040 33920
L55990 33940
L55970 33960
L55950 34010
" />
</g>
<g style="fill:#840000; fill-opacity:0.0; 
stroke:#840000; stroke-width:60; stroke-opacity:1; 
stroke-linecap:round; stroke-linejoin:round;">
<path d="M52360 33420
L52380 33400
L52430 33380
L52550 33380
L52590 33400
L52620 33420
L52640 33470
L52640 33520
L52620 33590
L52330 33880
L52640 33880
" />
<path d="M53500 35000
L51500 35000
" />
</g>
<g style="fill:#008484; fill-opacity:0.0; 
stroke:#008484; stroke-width:60; stroke-opacity:1; 
stroke-linecap:round; stroke-linejoin:round;">
<path d="M54020 35230
L54020 34730
L54190 35080
L54350 34730
L54350 35230
" />
<path d="M54470 35270
L54850 35270
" />
<path d="M54970 35230
L54970 34730
L55160 34730
L55210 34750
L55230 34770
L55250 34820
L55250 34890
L55230 34940
L55210 34960
L55160 34990
L54970 34990
" />
<path d="M55750 35180
L55730 35200
L55660 35230
L55610 35230
L55540 35200
L55490 35150
L55470 35110
L55450 35010
L55450 34940
L55470 34850
L55490 34800
L55540 34750
L55610 34730
L55660 34730
L55730 34750
L55750 34770
" />
<path d="M55920 34730
L56250 34730
L56040 35230
" />
</g>
<g style="fill:#840000; fill-opacity:0.0; 
stroke:#840000; stroke-width:60; stroke-opacity:1; 
stroke-linecap:round; stroke-linejoin:round;">
<path d="M52330 34380
L52640 34380
L52470 34570
L52550 34570
L52590 34590
L52620 34610
L52640 34660
L52640 34780
L52620 34830
L52590 34850
L52550 34880
L52400 34880
L52360 34850
L52330 34830
" />
<path d="M53500 36000
L51500 36000
" />
</g>
<g style="fill:#008484; fill-opacity:0.0; 
stroke:#008484; stroke-width:60; stroke-opacity:1; 
stroke-linecap:round; stroke-linejoin:round;">
<path d="M54000 36200
L54070 36230
L54190 36230
L54230 36200
L54260 36180
L54280 36130
L54280 36080
L54260 36040
L54230 36010
L54190 35990
L54090 35960
L54040 35940
L54020 35920
L54000 35870
L54000 35820
L54020 35770
L54040 35750
L54090 35730
L54210 35730
L54280 35750
" />
<path d="M54450 35730
L54570 36230
L54670 35870
L54760 36230
L54880 35730
" />
<path d="M55070 36230
L55070 35730
" />
<path d="M55310 36230
L55310 35730
L55480 36080
L55640 35730
L55640 36230
" />
</g>
<g style="fill:#840000; fill-opacity:0.0; 
stroke:#840000; stroke-width:60; stroke-opacity:1; 
stroke-linecap:round; stroke-linejoin:round;">
<path d="M52590 35540
L52590 35880
" />
<path d="M52470 35350
L52360 35710
L52660 35710
" />
<path d="M53500 37000
L51500 37000
" />
</g>
<g style="fill:#008484; fill-opacity:0.0; 
stroke:#008484; stroke-width:60; stroke-opacity:1; 
stroke-linecap:round; stroke-linejoin:round;">
<path d="M54020 37230
L54020 36730
L54190 37080
L54350 36730
L54350 37230
" />
<path d="M54470 37270
L54850 37270
" />
<path d="M54970 37230
L54970 36730
L55160 36730
L55210 36750
L55230 36770
L55250 36820
L55250 36890
L55230 36940
L55210 36960
L55160 36990
L54970 36990
" />
<path d="M55470 37230
L55470 36730
L55590 36730
L55660 36750
L55710 36800
L55730 36850
L55750 36940
L55750 37010
L55730 37110
L55710 37150
L55660 37200
L55590 37230
L55470 37230
" />
<path d="M55920 36730
L56230 36730
L56060 36920
L56140 36920
L56180 36940
L56210 36960
L56230 37010
L56230 37130
L56210 37180
L56180 37200
L56140 37230
L55990 37230
L55950 37200
L55920 37180
" />
</g>
<g style="fill:#840000; fill-opacity:0.0; 
stroke:#840000; stroke-width:60; stroke-opacity:1; 
stroke-linecap:round; stroke-linejoin:round;">
<path d="M52620 36380
L52380 36380
L52360 36610
L52380 36590
L52430 36570
L52550 36570
L52590 36590
L52620 36610
L52640 36660
L52640 36780
L52620 36830
L52590 36850
L52550 36880
L52430 36880
L52380 36850
L52360 36830
" />
<path d="M53500 38000
L51500 38000
" />
</g>
<g style="fill:#008484; fill-opacity:0.0; 
stroke:#008484; stroke-width:60; stroke-opacity:1; 
stroke-linecap:round; stroke-linejoin:round;">
<path d="M54020 38230
L54020 37730
L54190 38080
L54350 37730
L54350 38230
" />
<path d="M54470 38270
L54850 38270
" />
<path d="M54970 38230
L54970 37730
L55160 37730
L55210 37750
L55230 37770
L55250 37820
L55250 37890
L55230 37940
L55210 37960
L55160 37990
L54970 37990
" />
<path d="M55470 38230
L55470 37730
L55590 37730
L55660 37750
L55710 37800
L55730 37850
L55750 37940
L55750 38010
L55730 38110
L55710 38150
L55660 38200
L55590 38230
L55470 38230
" />
<path d="M56180 37890
L56180 38230
" />
<path d="M56060 37700
L55950 38060
L56250 38060
" />
</g>
<g style="fill:#840000; fill-opacity:0.0; 
stroke:#840000; stroke-width:60; stroke-opacity:1; 
stroke-linecap:round; stroke-linejoin:round;">
<path d="M52590 37380
L52500 37380
L52450 37400
L52430 37420
L52380 37500
L52360 37590
L52360 37780
L52380 37830
L52400 37850
L52450 37880
L52550 37880
L52590 37850
L52620 37830
L52640 37780
L52640 37660
L52620 37610
L52590 37590
L52550 37570
L52450 37570
L52400 37590
L52380 37610
L52360 37660
" />
<path d="M53500 39000
L51500 39000
" />
</g>
<g style="fill:#008484; fill-opacity:0.0; 
stroke:#008484; stroke-width:60; stroke-opacity:1; 
stroke-linecap:round; stroke-linejoin:round;">
<path d="M54020 39230
L54020 38730
L54190 39080
L54350 38730
L54350 39230
" />
<path d="M54470 39270
L54850 39270
" />
<path d="M54970 39230
L54970 38730
L55250 39230
L55250 38730
" />
<path d="M55770 39230
L55610 38990
" />
<path d="M55490 39230
L55490 38730
L55680 38730
L55730 38750
L55750 38770
L55770 38820
L55770 38890
L55750 38940
L55730 38960
L55680 38990
L55490 38990
" />
<path d="M55970 39200
L56040 39230
L56160 39230
L56200 39200
L56230 39180
L56250 39130
L56250 39080
L56230 39040
L56200 39010
L56160 38990
L56060 38960
L56010 38940
L55990 38920
L55970 38870
L55970 38820
L55990 38770
L56010 38750
L56060 38730
L56180 38730
L56250 38750
" />
<path d="M56400 38730
L56680 38730
" />
<path d="M56540 39230
L56540 38730
" />
</g>
<g style="fill:#840000; fill-opacity:0.0; 
stroke:#840000; stroke-width:60; stroke-opacity:1; 
stroke-linecap:round; stroke-linejoin:round;">
<path d="M52330 38380
L52660 38380
L52450 38880
" />
<path d="M53500 40000
L51500 40000
" />
</g>
<g style="fill:#008484; fill-opacity:0.0; 
stroke:#008484; stroke-width:60; stroke-opacity:1; 
stroke-linecap:round; stroke-linejoin:round;">
<path d="M54280 39750
L54230 39730
L54160 39730
L54090 39750
L54040 39800
L54020 39850
L54000 39940
L54000 40010
L54020 40110
L54040 40150
L54090 40200
L54160 40230
L54210 40230
L54280 40200
L54300 40180
L54300 40010
L54210 40010
" />
<path d="M54520 40230
L54520 39730
L54800 40230
L54800 39730
" />
<path d="M55040 40230
L55040 39730
L55160 39730
L55230 39750
L55280 39800
L55300 39850
L55320 39940
L55320 40010
L55300 40110
L55280 40150
L55230 40200
L55160 40230
L55040 40230
" />
</g>
<g style="fill:#840000; fill-opacity:0.0; 
stroke:#840000; stroke-width:60; stroke-opacity:1; 
stroke-linecap:round; stroke-linejoin:round;">
<path d="M52450 39590
L52400 39570
L52380 39540
L52360 39500
L52360 39470
L52380 39420
L52400 39400
L52450 39380
L52550 39380
L52590 39400
L52620 39420
L52640 39470
L52640 39500
L52620 39540
L52590 39570
L52550 39590
L52450 39590
L52400 39610
L52380 39640
L52360 39690
L52360 39780
L52380 39830
L52400 39850
L52450 39880
L52550 39880
L52590 39850
L52620 39830
L52640 39780
L52640 39690
L52620 39640
L52590 39610
L52550 39590
" />
<path d="M56500 42500
L56500 44500
" />
</g>
<g style="fill:#008484; fill-opacity:0.0; 
stroke:#008484; stroke-width:60; stroke-opacity:1; 
stroke-linecap:round; stroke-linejoin:round;">
<path d="M56730 41980
L56230 41980
L56580 41810
L56230 41650
L56730 41650
" />
<path d="M56770 41530
L56770 41150
" />
<path d="M56730 41030
L56230 41030
L56230 40840
L56250 40790
L56270 40770
L56320 40750
L56390 40750
L56440 40770
L56460 40790
L56490 40840
L56490 41030
" />
<path d="M56730 40530
L56230 40530
L56230 40410
L56250 40340
L56300 40290
L56350 40270
L56440 40250
L56510 40250
L56610 40270
L56650 40290
L56700 40340
L56730 40410
L56730 40530
" />
<path d="M56270 40050
L56250 40030
L56230 39980
L56230 39860
L56250 39820
L56270 39790
L56320 39770
L56370 39770
L56440 39790
L56730 40080
L56730 39770
" />
</g>
<g style="fill:#840000; fill-opacity:0.0; 
stroke:#840000; stroke-width:60; stroke-opacity:1; 
stroke-linecap:round; stroke-linejoin:round;">
<path d="M56380 43600
L56380 43500
L56350 43450
L56330 43430
L56260 43380
L56160 43360
L55970 43360
L55920 43380
L55900 43410
L55880 43450
L55880 43550
L55900 43600
L55920 43620
L55970 43640
L56090 43640
L56140 43620
L56160 43600
L56190 43550
L56190 43450
L56160 43410
L56140 43380
L56090 43360
" />
<path d="M57500 42500
L57500 44500
" />
</g>
<g style="fill:#008484; fill-opacity:0.0; 
stroke:#008484; stroke-width:60; stroke-opacity:1; 
stroke-linecap:round; stroke-linejoin:round;">
<path d="M57730 41980
L57230 41980
L57580 41810
L57230 41650
L57730 41650
" />
<path d="M57770 41530
L57770 41150
" />
<path d="M57730 41030
L57230 41030
L57230 40840
L57250 40790
L57270 40770
L57320 40750
L57390 40750
L57440 40770
L57460 40790
L57490 40840
L57490 41030
" />
<path d="M57730 40530
L57230 40530
L57230 40410
L57250 40340
L57300 40290
L57350 40270
L57440 40250
L57510 40250
L57610 40270
L57650 40290
L57700 40340
L57730 40410
L57730 40530
" />
<path d="M57230 39790
L57230 40030
L57460 40050
L57440 40030
L57420 39980
L57420 39860
L57440 39820
L57460 39790
L57510 39770
L57630 39770
L57680 39790
L57700 39820
L57730 39860
L57730 39980
L57700 40030
L57680 40050
" />
</g>
<g style="fill:#840000; fill-opacity:0.0; 
stroke:#840000; stroke-width:60; stroke-opacity:1; 
stroke-linecap:round; stroke-linejoin:round;">
<path d="M57380 43600
L57380 43880
" />
<path d="M57380 43740
L56880 43740
L56950 43790
L57000 43840
L57020 43880
" />
<path d="M56880 43290
L56880 43240
L56900 43190
L56920 43170
L56970 43140
L57070 43120
L57190 43120
L57280 43140
L57330 43170
L57350 43190
L57380 43240
L57380 43290
L57350 43330
L57330 43360
L57280 43380
L57190 43400
L57070 43400
L56970 43380
L56920 43360
L56900 43330
L56880 43290
" />
<path d="M65500 35000
L67500 35000
" />
</g>
<g style="fill:#008484; fill-opacity:0.0; 
stroke:#008484; stroke-width:60; stroke-opacity:1; 
stroke-linecap:round; stroke-linejoin:round;">
<path d="M62790 35230
L62790 34730
L62960 35080
L63120 34730
L63120 35230
" />
<path d="M63240 35270
L63620 35270
" />
<path d="M63740 35230
L63740 34730
L63930 34730
L63980 34750
L64000 34770
L64020 34820
L64020 34890
L64000 34940
L63980 34960
L63930 34990
L63740 34990
" />
<path d="M64410 34960
L64480 34990
L64500 35010
L64520 35060
L64520 35130
L64500 35180
L64480 35200
L64430 35230
L64240 35230
L64240 34730
L64410 34730
L64450 34750
L64480 34770
L64500 34820
L64500 34870
L64480 34920
L64450 34940
L64410 34960
L64240 34960
" />
<path d="M64950 34890
L64950 35230
" />
<path d="M64830 34700
L64720 35060
L65020 35060
" />
</g>
<g style="fill:#840000; fill-opacity:0.0; 
stroke:#840000; stroke-width:60; stroke-opacity:1; 
stroke-linecap:round; stroke-linejoin:round;">
<path d="M66120 34420
L66140 34400
L66190 34380
L66310 34380
L66350 34400
L66380 34420
L66400 34470
L66400 34520
L66380 34590
L66090 34880
L66400 34880
" />
<path d="M66710 34380
L66760 34380
L66810 34400
L66830 34420
L66860 34470
L66880 34570
L66880 34690
L66860 34780
L66830 34830
L66810 34850
L66760 34880
L66710 34880
L66670 34850
L66640 34830
L66620 34780
L66600 34690
L66600 34570
L66620 34470
L66640 34420
L66670 34400
L66710 34380
" />
<path d="M58500 42500
L58500 44500
" />
</g>
<g style="fill:#008484; fill-opacity:0.0; 
stroke:#008484; stroke-width:60; stroke-opacity:1; 
stroke-linecap:round; stroke-linejoin:round;">
<path d="M58730 41980
L58230 41980
L58580 41810
L58230 41650
L58730 41650
" />
<path d="M58770 41530
L58770 41150
" />
<path d="M58730 41030
L58230 41030
L58230 40840
L58250 40790
L58270 40770
L58320 40750
L58390 40750
L58440 40770
L58460 40790
L58490 40840
L58490 41030
" />
<path d="M58730 40530
L58230 40530
L58230 40410
L58250 40340
L58300 40290
L58350 40270
L58440 40250
L58510 40250
L58610 40270
L58650 40290
L58700 40340
L58730 40410
L58730 40530
" />
<path d="M58230 39820
L58230 39910
L58250 39960
L58270 39980
L58350 40030
L58440 40050
L58630 40050
L58680 40030
L58700 40010
L58730 39960
L58730 39860
L58700 39820
L58680 39790
L58630 39770
L58510 39770
L58460 39790
L58440 39820
L58420 39860
L58420 39960
L58440 40010
L58460 40030
L58510 40050
" />
</g>
<g style="fill:#840000; fill-opacity:0.0; 
stroke:#840000; stroke-width:60; stroke-opacity:1; 
stroke-linecap:round; stroke-linejoin:round;">
<path d="M58380 43600
L58380 43880
" />
<path d="M58380 43740
L57880 43740
L57950 43790
L58000 43840
L58020 43880
" />
<path d="M58380 43120
L58380 43400
" />
<path d="M58380 43260
L57880 43260
L57950 43310
L58000 43360
L58020 43400
" />
<path d="M65500 34000
L67500 34000
" />
</g>
<g style="fill:#008484; fill-opacity:0.0; 
stroke:#008484; stroke-width:60; stroke-opacity:1; 
stroke-linecap:round; stroke-linejoin:round;">
<path d="M62790 34230
L62790 33730
L62960 34080
L63120 33730
L63120 34230
" />
<path d="M63240 34270
L63620 34270
" />
<path d="M63740 34230
L63740 33730
L63930 33730
L63980 33750
L64000 33770
L64020 33820
L64020 33890
L64000 33940
L63980 33960
L63930 33990
L63740 33990
" />
<path d="M64520 34180
L64500 34200
L64430 34230
L64380 34230
L64310 34200
L64260 34150
L64240 34110
L64220 34010
L64220 33940
L64240 33850
L64260 33800
L64310 33750
L64380 33730
L64430 33730
L64500 33750
L64520 33770
" />
<path d="M64690 33730
L65000 33730
L64830 33920
L64910 33920
L64950 33940
L64980 33960
L65000 34010
L65000 34130
L64980 34180
L64950 34200
L64910 34230
L64760 34230
L64720 34200
L64690 34180
" />
</g>
<g style="fill:#840000; fill-opacity:0.0; 
stroke:#840000; stroke-width:60; stroke-opacity:1; 
stroke-linecap:round; stroke-linejoin:round;">
<path d="M66120 33420
L66140 33400
L66190 33380
L66310 33380
L66350 33400
L66380 33420
L66400 33470
L66400 33520
L66380 33590
L66090 33880
L66400 33880
" />
<path d="M66880 33880
L66600 33880
" />
<path d="M66740 33880
L66740 33380
L66690 33450
L66640 33500
L66600 33520
" />
<path d="M59500 42500
L59500 44500
" />
</g>
<g style="fill:#008484; fill-opacity:0.0; 
stroke:#008484; stroke-width:60; stroke-opacity:1; 
stroke-linecap:round; stroke-linejoin:round;">
<path d="M59730 41980
L59230 41980
L59580 41810
L59230 41650
L59730 41650
" />
<path d="M59770 41530
L59770 41150
" />
<path d="M59730 41030
L59230 41030
L59230 40840
L59250 40790
L59270 40770
L59320 40750
L59390 40750
L59440 40770
L59460 40790
L59490 40840
L59490 41030
" />
<path d="M59580 40550
L59580 40320
" />
<path d="M59730 40600
L59230 40440
L59730 40270
" />
<path d="M59730 39840
L59730 40120
" />
<path d="M59730 39980
L59230 39980
L59300 40030
L59350 40080
L59370 40120
" />
</g>
<g style="fill:#840000; fill-opacity:0.0; 
stroke:#840000; stroke-width:60; stroke-opacity:1; 
stroke-linecap:round; stroke-linejoin:round;">
<path d="M59380 43600
L59380 43880
" />
<path d="M59380 43740
L58880 43740
L58950 43790
L59000 43840
L59020 43880
" />
<path d="M58920 43400
L58900 43380
L58880 43330
L58880 43210
L58900 43170
L58920 43140
L58970 43120
L59020 43120
L59090 43140
L59380 43430
L59380 43120
" />
<path d="M65500 33000
L67500 33000
" />
</g>
<g style="fill:#008484; fill-opacity:0.0; 
stroke:#008484; stroke-width:60; stroke-opacity:1; 
stroke-linecap:round; stroke-linejoin:round;">
<path d="M62790 33230
L62790 32730
L62960 33080
L63120 32730
L63120 33230
" />
<path d="M63240 33270
L63620 33270
" />
<path d="M63740 33230
L63740 32730
L63930 32730
L63980 32750
L64000 32770
L64020 32820
L64020 32890
L64000 32940
L63980 32960
L63930 32990
L63740 32990
" />
<path d="M64520 33180
L64500 33200
L64430 33230
L64380 33230
L64310 33200
L64260 33150
L64240 33110
L64220 33010
L64220 32940
L64240 32850
L64260 32800
L64310 32750
L64380 32730
L64430 32730
L64500 32750
L64520 32770
" />
<path d="M64950 32890
L64950 33230
" />
<path d="M64830 32700
L64720 33060
L65020 33060
" />
</g>
<g style="fill:#840000; fill-opacity:0.0; 
stroke:#840000; stroke-width:60; stroke-opacity:1; 
stroke-linecap:round; stroke-linejoin:round;">
<path d="M66120 32420
L66140 32400
L66190 32380
L66310 32380
L66350 32400
L66380 32420
L66400 32470
L66400 32520
L66380 32590
L66090 32880
L66400 32880
" />
<path d="M66600 32420
L66620 32400
L66670 32380
L66790 32380
L66830 32400
L66860 32420
L66880 32470
L66880 32520
L66860 32590
L66570 32880
L66880 32880
" />
<path d="M60500 42500
L60500 44500
" />
</g>
<g style="fill:#008484; fill-opacity:0.0; 
stroke:#008484; stroke-width:60; stroke-opacity:1; 
stroke-linecap:round; stroke-linejoin:round;">
<path d="M60730 41980
L60230 41980
L60580 41810
L60230 41650
L60730 41650
" />
<path d="M60770 41530
L60770 41150
" />
<path d="M60730 41030
L60230 41030
L60230 40840
L60250 40790
L60270 40770
L60320 40750
L60390 40750
L60440 40770
L60460 40790
L60490 40840
L60490 41030
" />
<path d="M60580 40550
L60580 40320
" />
<path d="M60730 40600
L60230 40440
L60730 40270
" />
<path d="M60270 40120
L60250 40100
L60230 40050
L60230 39930
L60250 39890
L60270 39860
L60320 39840
L60370 39840
L60440 39860
L60730 40150
L60730 39840
" />
</g>
<g style="fill:#840000; fill-opacity:0.0; 
stroke:#840000; stroke-width:60; stroke-opacity:1; 
stroke-linecap:round; stroke-linejoin:round;">
<path d="M60380 43600
L60380 43880
" />
<path d="M60380 43740
L59880 43740
L59950 43790
L60000 43840
L60020 43880
" />
<path d="M59880 43430
L59880 43120
L60070 43290
L60070 43210
L60090 43170
L60110 43140
L60160 43120
L60280 43120
L60330 43140
L60350 43170
L60380 43210
L60380 43360
L60350 43400
L60330 43430
" />
<path d="M61500 42500
L61500 44500
" />
</g>
<g style="fill:#008484; fill-opacity:0.0; 
stroke:#008484; stroke-width:60; stroke-opacity:1; 
stroke-linecap:round; stroke-linejoin:round;">
<path d="M61460 41980
L61460 41810
" />
<path d="M61730 41740
L61730 41980
L61230 41980
L61230 41740
" />
<path d="M61770 41650
L61770 41270
" />
<path d="M61250 40890
L61230 40940
L61230 41010
L61250 41080
L61300 41130
L61350 41150
L61440 41170
L61510 41170
L61610 41150
L61650 41130
L61700 41080
L61730 41010
L61730 40960
L61700 40890
L61680 40870
L61510 40870
L61510 40960
" />
<path d="M61730 40650
L61230 40650
L61230 40460
L61250 40410
L61270 40390
L61320 40370
L61390 40370
L61440 40390
L61460 40410
L61490 40460
L61490 40650
" />
<path d="M61730 40150
L61230 40150
" />
<path d="M61230 39820
L61230 39720
L61250 39670
L61300 39630
L61390 39600
L61560 39600
L61650 39630
L61700 39670
L61730 39720
L61730 39820
L61700 39860
L61650 39910
L61560 39930
L61390 39930
L61300 39910
L61250 39860
L61230 39820
" />
<path d="M61230 39300
L61230 39250
L61250 39200
L61270 39180
L61320 39150
L61420 39130
L61540 39130
L61630 39150
L61680 39180
L61700 39200
L61730 39250
L61730 39300
L61700 39340
L61680 39370
L61630 39390
L61540 39410
L61420 39410
L61320 39390
L61270 39370
L61250 39340
L61230 39300
" />
</g>
<g style="fill:#840000; fill-opacity:0.0; 
stroke:#840000; stroke-width:60; stroke-opacity:1; 
stroke-linecap:round; stroke-linejoin:round;">
<path d="M61380 43600
L61380 43880
" />
<path d="M61380 43740
L60880 43740
L60950 43790
L61000 43840
L61020 43880
" />
<path d="M61040 43170
L61380 43170
" />
<path d="M60850 43290
L61210 43400
L61210 43100
" />
<path d="M65500 40000
L67500 40000
" />
</g>
<g style="fill:#008484; fill-opacity:0.0; 
stroke:#008484; stroke-width:60; stroke-opacity:1; 
stroke-linecap:round; stroke-linejoin:round;">
<path d="M62410 40230
L62410 39730
L62580 40080
L62740 39730
L62740 40230
" />
<path d="M62860 40270
L63240 40270
" />
<path d="M63290 39730
L63450 40230
L63620 39730
" />
<path d="M64070 40180
L64050 40200
L63980 40230
L63930 40230
L63860 40200
L63810 40150
L63790 40110
L63770 40010
L63770 39940
L63790 39850
L63810 39800
L63860 39750
L63930 39730
L63980 39730
L64050 39750
L64070 39770
" />
<path d="M64270 40080
L64500 40080
" />
<path d="M64220 40230
L64380 39730
L64550 40230
" />
<path d="M64720 40230
L64720 39730
L64910 39730
L64960 39750
L64980 39770
L65000 39820
L65000 39890
L64980 39940
L64960 39960
L64910 39990
L64720 39990
" />
</g>
<g style="fill:#840000; fill-opacity:0.0; 
stroke:#840000; stroke-width:60; stroke-opacity:1; 
stroke-linecap:round; stroke-linejoin:round;">
<path d="M66400 39880
L66120 39880
" />
<path d="M66260 39880
L66260 39380
L66210 39450
L66160 39500
L66120 39520
" />
<path d="M66860 39380
L66620 39380
L66600 39610
L66620 39590
L66670 39570
L66790 39570
L66830 39590
L66860 39610
L66880 39660
L66880 39780
L66860 39830
L66830 39850
L66790 39880
L66670 39880
L66620 39850
L66600 39830
" />
<path d="M65500 39000
L67500 39000
" />
</g>
<g style="fill:#008484; fill-opacity:0.0; 
stroke:#008484; stroke-width:60; stroke-opacity:1; 
stroke-linecap:round; stroke-linejoin:round;">
<path d="M62840 39230
L62840 38730
L63010 39080
L63170 38730
L63170 39230
" />
<path d="M63290 39270
L63670 39270
" />
<path d="M63720 38730
L63880 39230
L64050 38730
" />
<path d="M64500 39180
L64480 39200
L64410 39230
L64360 39230
L64290 39200
L64240 39150
L64220 39110
L64200 39010
L64200 38940
L64220 38850
L64240 38800
L64290 38750
L64360 38730
L64410 38730
L64480 38750
L64500 38770
" />
<path d="M65000 39180
L64980 39200
L64910 39230
L64860 39230
L64790 39200
L64740 39150
L64720 39110
L64700 39010
L64700 38940
L64720 38850
L64740 38800
L64790 38750
L64860 38730
L64910 38730
L64980 38750
L65000 38770
" />
</g>
<g style="fill:#840000; fill-opacity:0.0; 
stroke:#840000; stroke-width:60; stroke-opacity:1; 
stroke-linecap:round; stroke-linejoin:round;">
<path d="M66400 38880
L66120 38880
" />
<path d="M66260 38880
L66260 38380
L66210 38450
L66160 38500
L66120 38520
" />
<path d="M66830 38380
L66740 38380
L66690 38400
L66670 38420
L66620 38500
L66600 38590
L66600 38780
L66620 38830
L66640 38850
L66690 38880
L66790 38880
L66830 38850
L66860 38830
L66880 38780
L66880 38660
L66860 38610
L66830 38590
L66790 38570
L66690 38570
L66640 38590
L66620 38610
L66600 38660
" />
<path d="M65500 38000
L67500 38000
" />
</g>
<g style="fill:#008484; fill-opacity:0.0; 
stroke:#008484; stroke-width:60; stroke-opacity:1; 
stroke-linecap:round; stroke-linejoin:round;">
<path d="M62960 37960
L63130 37960
" />
<path d="M63200 38230
L62960 38230
L62960 37730
L63200 37730
" />
<path d="M63290 38270
L63670 38270
" />
<path d="M63720 37730
L63880 38230
L64050 37730
" />
<path d="M64500 38180
L64480 38200
L64410 38230
L64360 38230
L64290 38200
L64240 38150
L64220 38110
L64200 38010
L64200 37940
L64220 37850
L64240 37800
L64290 37750
L64360 37730
L64410 37730
L64480 37750
L64500 37770
" />
<path d="M65000 38180
L64980 38200
L64910 38230
L64860 38230
L64790 38200
L64740 38150
L64720 38110
L64700 38010
L64700 37940
L64720 37850
L64740 37800
L64790 37750
L64860 37730
L64910 37730
L64980 37750
L65000 37770
" />
</g>
<g style="fill:#840000; fill-opacity:0.0; 
stroke:#840000; stroke-width:60; stroke-opacity:1; 
stroke-linecap:round; stroke-linejoin:round;">
<path d="M66400 37880
L66120 37880
" />
<path d="M66260 37880
L66260 37380
L66210 37450
L66160 37500
L66120 37520
" />
<path d="M66570 37380
L66900 37380
L66690 37880
" />
<path d="M65500 37000
L67500 37000
" />
</g>
<g style="fill:#008484; fill-opacity:0.0; 
stroke:#008484; stroke-width:60; stroke-opacity:1; 
stroke-linecap:round; stroke-linejoin:round;">
<path d="M62860 37230
L62860 36730
L63030 37080
L63190 36730
L63190 37230
" />
<path d="M63310 37270
L63690 37270
" />
<path d="M63810 37230
L63810 36730
L64000 36730
L64050 36750
L64070 36770
L64090 36820
L64090 36890
L64070 36940
L64050 36960
L64000 36990
L63810 36990
" />
<path d="M64290 37080
L64520 37080
" />
<path d="M64240 37230
L64400 36730
L64570 37230
" />
<path d="M64690 36730
L65000 36730
L64830 36920
L64910 36920
L64950 36940
L64980 36960
L65000 37010
L65000 37130
L64980 37180
L64950 37200
L64910 37230
L64760 37230
L64720 37200
L64690 37180
" />
</g>
<g style="fill:#840000; fill-opacity:0.0; 
stroke:#840000; stroke-width:60; stroke-opacity:1; 
stroke-linecap:round; stroke-linejoin:round;">
<path d="M66400 36880
L66120 36880
" />
<path d="M66260 36880
L66260 36380
L66210 36450
L66160 36500
L66120 36520
" />
<path d="M66690 36590
L66640 36570
L66620 36540
L66600 36500
L66600 36470
L66620 36420
L66640 36400
L66690 36380
L66790 36380
L66830 36400
L66860 36420
L66880 36470
L66880 36500
L66860 36540
L66830 36570
L66790 36590
L66690 36590
L66640 36610
L66620 36640
L66600 36690
L66600 36780
L66620 36830
L66640 36850
L66690 36880
L66790 36880
L66830 36850
L66860 36830
L66880 36780
L66880 36690
L66860 36640
L66830 36610
L66790 36590
" />
<path d="M65500 36000
L67500 36000
" />
</g>
<g style="fill:#008484; fill-opacity:0.0; 
stroke:#008484; stroke-width:60; stroke-opacity:1; 
stroke-linecap:round; stroke-linejoin:round;">
<path d="M62790 36230
L62790 35730
L62960 36080
L63120 35730
L63120 36230
" />
<path d="M63240 36270
L63620 36270
" />
<path d="M63740 36230
L63740 35730
L63930 35730
L63980 35750
L64000 35770
L64020 35820
L64020 35890
L64000 35940
L63980 35960
L63930 35990
L63740 35990
" />
<path d="M64410 35960
L64480 35990
L64500 36010
L64520 36060
L64520 36130
L64500 36180
L64480 36200
L64430 36230
L64240 36230
L64240 35730
L64410 35730
L64450 35750
L64480 35770
L64500 35820
L64500 35870
L64480 35920
L64450 35940
L64410 35960
L64240 35960
" />
<path d="M64980 35730
L64740 35730
L64720 35960
L64740 35940
L64790 35920
L64910 35920
L64950 35940
L64980 35960
L65000 36010
L65000 36130
L64980 36180
L64950 36200
L64910 36230
L64790 36230
L64740 36200
L64720 36180
" />
</g>
<g style="fill:#840000; fill-opacity:0.0; 
stroke:#840000; stroke-width:60; stroke-opacity:1; 
stroke-linecap:round; stroke-linejoin:round;">
<path d="M66400 35880
L66120 35880
" />
<path d="M66260 35880
L66260 35380
L66210 35450
L66160 35500
L66120 35520
" />
<path d="M66640 35880
L66740 35880
L66790 35850
L66810 35830
L66860 35760
L66880 35660
L66880 35470
L66860 35420
L66830 35400
L66790 35380
L66690 35380
L66640 35400
L66620 35420
L66600 35470
L66600 35590
L66620 35640
L66640 35660
L66690 35690
L66790 35690
L66830 35660
L66860 35640
L66880 35590
" />
</g>
<g style="fill:#008484; fill-opacity:0.0; 
stroke:#008484; stroke-width:60; stroke-opacity:1; 
stroke-linecap:round; stroke-linejoin:round;">
<path d="M58540 45710
L58540 46200
L58570 46250
L58600 46280
L58660 46310
L58770 46310
L58830 46280
L58860 46250
L58890 46200
L58890 45710
" />
<path d="M59490 46310
L59140 46310
" />
<path d="M59320 46310
L59320 45710
L59260 45800
L59200 45850
L59140 45880
" />
<path d="M57660 30780
L57600 30810
L57490 30810
L57430 30780
L57400 30730
L57400 30500
L57430 30440
L57490 30410
L57600 30410
L57660 30440
L57690 30500
L57690 30550
L57400 30610
" />
<path d="M57910 30780
L57970 30810
L58090 30810
L58140 30780
L58170 30730
L58170 30700
L58140 30640
L58090 30610
L58000 30610
L57940 30580
L57910 30530
L57910 30500
L57940 30440
L58000 30410
L58090 30410
L58140 30440
" />
<path d="M58430 30410
L58430 31010
" />
<path d="M58430 30440
L58490 30410
L58600 30410
L58660 30440
L58690 30470
L58720 30530
L58720 30700
L58690 30750
L58660 30780
L58600 30810
L58490 30810
L58430 30780
" />
<path d="M58970 30580
L59430 30580
" />
<path d="M60030 30810
L59680 30810
" />
<path d="M59860 30810
L59860 30210
L59800 30300
L59740 30350
L59680 30380
" />
<path d="M60540 30410
L60540 30810
" />
<path d="M60400 30180
L60250 30610
L60630 30610
" />
</g>
<g style="fill:#008484; fill-opacity:0.0; 
stroke:#008484; stroke-width:0; stroke-opacity:1; 
stroke-linecap:round; stroke-linejoin:round;">
</g>
<g style="fill:#840000; fill-opacity:0.0; 
stroke:#840000; stroke-width:0; stroke-opacity:1; 
stroke-linecap:round; stroke-linejoin:round;">
</g>
<g style="fill:#840000; fill-opacity:0.0; 
stroke:#840000; stroke-width:60; stroke-opacity:1; 
stroke-linecap:round; stroke-linejoin:round;">
<rect x="71500" y="42950" width="600" height="100" rx="0" />
<rect x="71500" y="41950" width="600" height="100" rx="0" />
<rect x="71500" y="40950" width="600" height="100" rx="0" />
<rect x="71500" y="39950" width="600" height="100" rx="0" />
<rect x="71500" y="38950" width="600" height="100" rx="0" />
<rect x="71500" y="37950" width="600" height="100" rx="0" />
<rect x="71500" y="36950" width="600" height="100" rx="0" />
<rect x="71500" y="35950" width="600" height="100" rx="0" />
<rect x="71500" y="34950" width="600" height="100" rx="0" />
<rect x="71500" y="33950" width="600" height="100" rx="0" />
<rect x="71500" y="32950" width="600" height="100" rx="0" />
<rect x="71500" y="32500" width="1000" height="11000" rx="0" />
<path d="M71500 33000
L70000 33000
" />
<path d="M70890 32880
L70610 32880
" />
<path d="M70750 32880
L70750 32380
L70700 32450
L70650 32500
L70610 32520
" />
<path d="M71500 34000
L70000 34000
" />
<path d="M70610 33420
L70630 33400
L70680 33380
L70800 33380
L70840 33400
L70870 33420
L70890 33470
L70890 33520
L70870 33590
L70580 33880
L70890 33880
" />
<path d="M71500 35000
L70000 35000
" />
<path d="M70580 34380
L70890 34380
L70720 34570
L70800 34570
L70840 34590
L70870 34610
L70890 34660
L70890 34780
L70870 34830
L70840 34850
L70800 34880
L70650 34880
L70610 34850
L70580 34830
" />
<path d="M71500 36000
L70000 36000
" />
<path d="M70840 35540
L70840 35880
" />
<path d="M70720 35350
L70610 35710
L70910 35710
" />
<path d="M71500 37000
L70000 37000
" />
<path d="M70870 36380
L70630 36380
L70610 36610
L70630 36590
L70680 36570
L70800 36570
L70840 36590
L70870 36610
L70890 36660
L70890 36780
L70870 36830
L70840 36850
L70800 36880
L70680 36880
L70630 36850
L70610 36830
" />
<path d="M71500 38000
L70000 38000
" />
<path d="M70840 37380
L70750 37380
L70700 37400
L70680 37420
L70630 37500
L70610 37590
L70610 37780
L70630 37830
L70650 37850
L70700 37880
L70800 37880
L70840 37850
L70870 37830
L70890 37780
L70890 37660
L70870 37610
L70840 37590
L70800 37570
L70700 37570
L70650 37590
L70630 37610
L70610 37660
" />
<path d="M71500 39000
L70000 39000
" />
<path d="M70580 38380
L70910 38380
L70700 38880
" />
<path d="M71500 40000
L70000 40000
" />
<path d="M70700 39590
L70650 39570
L70630 39540
L70610 39500
L70610 39470
L70630 39420
L70650 39400
L70700 39380
L70800 39380
L70840 39400
L70870 39420
L70890 39470
L70890 39500
L70870 39540
L70840 39570
L70800 39590
L70700 39590
L70650 39610
L70630 39640
L70610 39690
L70610 39780
L70630 39830
L70650 39850
L70700 39880
L70800 39880
L70840 39850
L70870 39830
L70890 39780
L70890 39690
L70870 39640
L70840 39610
L70800 39590
" />
<path d="M71500 41000
L70000 41000
" />
<path d="M70650 40880
L70750 40880
L70800 40850
L70820 40830
L70870 40760
L70890 40660
L70890 40470
L70870 40420
L70840 40400
L70800 40380
L70700 40380
L70650 40400
L70630 40420
L70610 40470
L70610 40590
L70630 40640
L70650 40660
L70700 40690
L70800 40690
L70840 40660
L70870 40640
L70890 40590
" />
<path d="M71500 42000
L70000 42000
" />
<path d="M70650 41880
L70370 41880
" />
<path d="M70510 41880
L70510 41380
L70460 41450
L70410 41500
L70370 41520
" />
<path d="M70960 41380
L71010 41380
L71060 41400
L71080 41420
L71110 41470
L71130 41570
L71130 41690
L71110 41780
L71080 41830
L71060 41850
L71010 41880
L70960 41880
L70920 41850
L70890 41830
L70870 41780
L70850 41690
L70850 41570
L70870 41470
L70890 41420
L70920 41400
L70960 41380
" />
<path d="M71500 43000
L70000 43000
" />
<path d="M70650 42880
L70370 42880
" />
<path d="M70510 42880
L70510 42380
L70460 42450
L70410 42500
L70370 42520
" />
<path d="M71130 42880
L70850 42880
" />
<path d="M70990 42880
L70990 42380
L70940 42450
L70890 42500
L70850 42520
" />
</g>
<g style="fill:#008484; fill-opacity:0.0; 
stroke:#008484; stroke-width:60; stroke-opacity:1; 
stroke-linecap:round; stroke-linejoin:round;">
<path d="M71630 32260
L71630 31760
L71820 31760
L71870 31780
L71890 31800
L71910 31850
L71910 31920
L71890 31970
L71870 31990
L71820 32020
L71630 32020
" />
<path d="M72110 31800
L72130 31780
L72180 31760
L72300 31760
L72340 31780
L72370 31800
L72390 31850
L72390 31900
L72370 31970
L72080 32260
L72390 32260
" />
<path d="M73210 40020
L73230 40040
L73260 40110
L73260 40160
L73230 40230
L73180 40280
L73140 40300
L73040 40320
L72970 40320
L72880 40300
L72830 40280
L72780 40230
L72760 40160
L72760 40110
L72780 40040
L72800 40020
" />
<path d="M72760 39710
L72760 39610
L72780 39560
L72830 39520
L72920 39490
L73090 39490
L73180 39520
L73230 39560
L73260 39610
L73260 39710
L73230 39750
L73180 39800
L73090 39820
L72920 39820
L72830 39800
L72780 39750
L72760 39710
" />
<path d="M73260 39280
L72760 39280
L73260 39000
L72760 39000
" />
<path d="M73260 38760
L72760 38760
L73260 38480
L72760 38480
" />
<path d="M73300 38360
L73300 37980
" />
<path d="M72760 37770
L72760 37720
L72780 37670
L72800 37650
L72850 37620
L72950 37600
L73070 37600
L73160 37620
L73210 37650
L73230 37670
L73260 37720
L73260 37770
L73230 37810
L73210 37840
L73160 37860
L73070 37880
L72950 37880
L72850 37860
L72800 37840
L72780 37810
L72760 37770
" />
<path d="M73260 37120
L73260 37400
" />
<path d="M73260 37260
L72760 37260
L72830 37310
L72880 37360
L72900 37400
" />
<path d="M72760 36950
L73260 36620
" />
<path d="M72760 36620
L73260 36950
" />
<path d="M73260 36160
L73260 36440
" />
<path d="M73260 36300
L72760 36300
L72830 36350
L72880 36400
L72900 36440
" />
<path d="M73260 35680
L73260 35960
" />
<path d="M73260 35820
L72760 35820
L72830 35870
L72880 35920
L72900 35960
" />
</g>
<g style="fill:#008484; fill-opacity:0.0; 
stroke:#008484; stroke-width:0; stroke-opacity:1; 
stroke-linecap:round; stroke-linejoin:round;">
</g>
<g style="fill:#840000; fill-opacity:0.0; 
stroke:#840000; stroke-width:0; stroke-opacity:1; 
stroke-linecap:round; stroke-linejoin:round;">
</g>
<g style="fill:#840000; fill-opacity:0.0; 
stroke:#840000; stroke-width:60; stroke-opacity:1; 
stroke-linecap:round; stroke-linejoin:round;">
<rect x="46900" y="42950" width="600" height="100" rx="0" />
<rect x="46900" y="41950" width="600" height="100" rx="0" />
<rect x="46900" y="40950" width="600" height="100" rx="0" />
<rect x="46900" y="39950" width="600" height="100" rx="0" />
<rect x="46900" y="38950" width="600" height="100" rx="0" />
<rect x="46900" y="37950" width="600" height="100" rx="0" />
<rect x="46900" y="36950" width="600" height="100" rx="0" />
<rect x="46900" y="35950" width="600" height="100" rx="0" />
<rect x="46900" y="34950" width="600" height="100" rx="0" />
<rect x="46900" y="33950" width="600" height="100" rx="0" />
<rect x="46900" y="32950" width="600" height="100" rx="0" />
<rect x="46500" y="32500" width="1000" height="11000" rx="0" />
<path d="M47500 33000
L49000 33000
" />
<path d="M48390 32880
L48110 32880
" />
<path d="M48250 32880
L48250 32380
L48200 32450
L48150 32500
L48110 32520
" />
<path d="M47500 34000
L49000 34000
" />
<path d="M48110 33420
L48130 33400
L48180 33380
L48300 33380
L48340 33400
L48370 33420
L48390 33470
L48390 33520
L48370 33590
L48080 33880
L48390 33880
" />
<path d="M47500 35000
L49000 35000
" />
<path d="M48080 34380
L48390 34380
L48220 34570
L48300 34570
L48340 34590
L48370 34610
L48390 34660
L48390 34780
L48370 34830
L48340 34850
L48300 34880
L48150 34880
L48110 34850
L48080 34830
" />
<path d="M47500 36000
L49000 36000
" />
<path d="M48340 35540
L48340 35880
" />
<path d="M48220 35350
L48110 35710
L48410 35710
" />
<path d="M47500 37000
L49000 37000
" />
<path d="M48370 36380
L48130 36380
L48110 36610
L48130 36590
L48180 36570
L48300 36570
L48340 36590
L48370 36610
L48390 36660
L48390 36780
L48370 36830
L48340 36850
L48300 36880
L48180 36880
L48130 36850
L48110 36830
" />
<path d="M47500 38000
L49000 38000
" />
<path d="M48340 37380
L48250 37380
L48200 37400
L48180 37420
L48130 37500
L48110 37590
L48110 37780
L48130 37830
L48150 37850
L48200 37880
L48300 37880
L48340 37850
L48370 37830
L48390 37780
L48390 37660
L48370 37610
L48340 37590
L48300 37570
L48200 37570
L48150 37590
L48130 37610
L48110 37660
" />
<path d="M47500 39000
L49000 39000
" />
<path d="M48080 38380
L48410 38380
L48200 38880
" />
<path d="M47500 40000
L49000 40000
" />
<path d="M48200 39590
L48150 39570
L48130 39540
L48110 39500
L48110 39470
L48130 39420
L48150 39400
L48200 39380
L48300 39380
L48340 39400
L48370 39420
L48390 39470
L48390 39500
L48370 39540
L48340 39570
L48300 39590
L48200 39590
L48150 39610
L48130 39640
L48110 39690
L48110 39780
L48130 39830
L48150 39850
L48200 39880
L48300 39880
L48340 39850
L48370 39830
L48390 39780
L48390 39690
L48370 39640
L48340 39610
L48300 39590
" />
<path d="M47500 41000
L49000 41000
" />
<path d="M48150 40880
L48250 40880
L48300 40850
L48320 40830
L48370 40760
L48390 40660
L48390 40470
L48370 40420
L48340 40400
L48300 40380
L48200 40380
L48150 40400
L48130 40420
L48110 40470
L48110 40590
L48130 40640
L48150 40660
L48200 40690
L48300 40690
L48340 40660
L48370 40640
L48390 40590
" />
<path d="M47500 42000
L49000 42000
" />
<path d="M48150 41880
L47870 41880
" />
<path d="M48010 41880
L48010 41380
L47960 41450
L47910 41500
L47870 41520
" />
<path d="M48460 41380
L48510 41380
L48560 41400
L48580 41420
L48610 41470
L48630 41570
L48630 41690
L48610 41780
L48580 41830
L48560 41850
L48510 41880
L48460 41880
L48420 41850
L48390 41830
L48370 41780
L48350 41690
L48350 41570
L48370 41470
L48390 41420
L48420 41400
L48460 41380
" />
<path d="M47500 43000
L49000 43000
" />
<path d="M48150 42880
L47870 42880
" />
<path d="M48010 42880
L48010 42380
L47960 42450
L47910 42500
L47870 42520
" />
<path d="M48630 42880
L48350 42880
" />
<path d="M48490 42880
L48490 42380
L48440 42450
L48390 42500
L48350 42520
" />
</g>
<g style="fill:#008484; fill-opacity:0.0; 
stroke:#008484; stroke-width:60; stroke-opacity:1; 
stroke-linecap:round; stroke-linejoin:round;">
<path d="M46630 32260
L46630 31760
L46820 31760
L46870 31780
L46890 31800
L46910 31850
L46910 31920
L46890 31970
L46870 31990
L46820 32020
L46630 32020
" />
<path d="M47390 32260
L47110 32260
" />
<path d="M47250 32260
L47250 31760
L47200 31830
L47150 31880
L47110 31900
" />
<path d="M46140 40020
L46160 40040
L46190 40110
L46190 40160
L46160 40230
L46110 40280
L46070 40300
L45970 40320
L45900 40320
L45810 40300
L45760 40280
L45710 40230
L45690 40160
L45690 40110
L45710 40040
L45730 40020
" />
<path d="M45690 39710
L45690 39610
L45710 39560
L45760 39520
L45850 39490
L46020 39490
L46110 39520
L46160 39560
L46190 39610
L46190 39710
L46160 39750
L46110 39800
L46020 39820
L45850 39820
L45760 39800
L45710 39750
L45690 39710
" />
<path d="M46190 39280
L45690 39280
L46190 39000
L45690 39000
" />
<path d="M46190 38760
L45690 38760
L46190 38480
L45690 38480
" />
<path d="M46230 38360
L46230 37980
" />
<path d="M45690 37770
L45690 37720
L45710 37670
L45730 37650
L45780 37620
L45880 37600
L46000 37600
L46090 37620
L46140 37650
L46160 37670
L46190 37720
L46190 37770
L46160 37810
L46140 37840
L46090 37860
L46000 37880
L45880 37880
L45780 37860
L45730 37840
L45710 37810
L45690 37770
" />
<path d="M46190 37120
L46190 37400
" />
<path d="M46190 37260
L45690 37260
L45760 37310
L45810 37360
L45830 37400
" />
<path d="M45690 36950
L46190 36620
" />
<path d="M45690 36620
L46190 36950
" />
<path d="M46190 36160
L46190 36440
" />
<path d="M46190 36300
L45690 36300
L45760 36350
L45810 36400
L45830 36440
" />
<path d="M46190 35680
L46190 35960
" />
<path d="M46190 35820
L45690 35820
L45760 35870
L45810 35920
L45830 35960
" />
</g>
<g style="fill:#008400; fill-opacity:0.0; 
stroke:#008400; stroke-width:60; stroke-opacity:1; 
stroke-linecap:round; stroke-linejoin:round;">
<path d="M49000 33000
L51500 33000
" />
<path d="M51500 34000
L49000 34000
" />
<path d="M49000 35000
L51500 35000
" />
<path d="M51500 36000
L49000 36000
" />
<path d="M49000 37000
L51500 37000
" />
<path d="M51500 38000
L49000 38000
" />
<path d="M49000 39000
L51500 39000
" />
<path d="M51500 40000
L49000 40000
" />
<path d="M56500 44500
L53000 44500
" />
<path d="M53000 44500
L53000 41000
" />
<path d="M53000 41000
L49000 41000
" />
<path d="M57500 44500
L57500 45000
" />
<path d="M57500 45000
L52500 45000
" />
<path d="M52500 45000
L52500 42000
" />
<path d="M52500 42000
L49000 42000
" />
<path d="M58500 44500
L58500 45500
" />
<path d="M58500 45500
L52000 45500
" />
<path d="M52000 45500
L52000 43000
" />
<path d="M52000 43000
L49000 43000
" />
<path d="M59500 44500
L59500 45500
" />
<path d="M59500 45500
L68000 45500
" />
<path d="M68000 45500
L68000 43000
" />
<path d="M68000 43000
L70000 43000
" />
<path d="M60500 44500
L60500 45000
" />
<path d="M60500 45000
L67500 45000
" />
<path d="M67500 45000
L67500 42000
" />
<path d="M67500 42000
L70000 42000
" />
<path d="M61500 44500
L66500 44500
" />
<path d="M66500 44500
L66500 41000
" />
<path d="M66500 41000
L70000 41000
" />
<path d="M67500 40000
L70000 40000
" />
<path d="M67500 39000
L70000 39000
" />
<path d="M67500 38000
L70000 38000
" />
<path d="M67500 37000
L70000 37000
" />
<path d="M67500 36000
L70000 36000
" />
<path d="M67500 35000
L70000 35000
" />
<path d="M67500 34000
L70000 34000
" />
<path d="M67500 33000
L70000 33000
" />
</g> 
</svg>
